<svg width="84" height="84" viewBox="0 0 84 84" fill="none" xmlns="http://www.w3.org/2000/svg">
<g clip-path="url(#clip0_37_74)">
<path d="M42 7.875C51.0505 7.875 59.7303 11.4703 66.13 17.87C72.5297 24.2697 76.125 32.9495 76.125 42C76.125 51.0505 72.5297 59.7303 66.13 66.13C59.7303 72.5297 51.0505 76.125 42 76.125C32.9495 76.125 24.2697 72.5297 17.87 66.13C11.4703 59.7303 7.875 51.0505 7.875 42C7.875 32.9495 11.4703 24.2697 17.87 17.87C24.2697 11.4703 32.9495 7.875 42 7.875ZM42 84C53.1391 84 63.822 79.575 71.6985 71.6985C79.575 63.822 84 53.1391 84 42C84 30.8609 79.575 20.178 71.6985 12.3015C63.822 4.42499 53.1391 0 42 0C30.8609 0 20.178 4.42499 12.3015 12.3015C4.42499 20.178 0 30.8609 0 42C0 53.1391 4.42499 63.822 12.3015 71.6985C20.178 79.575 30.8609 84 42 84ZM53.8781 64.5586C55.4695 63.082 55.5516 60.5883 54.075 58.9969C51.7289 56.4867 47.6766 53.8125 42 53.8125C36.3234 53.8125 32.2711 56.4867 29.9414 58.9969C28.4648 60.5883 28.5469 63.082 30.1383 64.5586C31.7297 66.0352 34.2234 65.9531 35.7 64.3617C36.9141 63.0656 38.9813 61.6711 42.0164 61.6711C45.0516 61.6711 47.1188 63.0656 48.3328 64.3617C49.8094 65.9531 52.3031 66.0352 53.8945 64.5586H53.8781ZM28.9406 44.625C31.8445 44.625 34.1906 42.2789 34.1906 39.375C34.1906 39.1289 34.1742 38.8828 34.1414 38.6531L35.9297 39.2437C37.3078 39.7031 38.7844 38.9648 39.2437 37.5867C39.7031 36.2086 38.9648 34.732 37.5867 34.2727L21.8367 29.0227C20.4586 28.5633 18.982 29.3016 18.5227 30.6797C18.0633 32.0578 18.8016 33.5344 20.1797 33.9937L25.2164 35.6672C24.2648 36.6187 23.6906 37.9313 23.6906 39.375C23.6906 42.2789 26.0367 44.625 28.9406 44.625ZM60.4406 39.375C60.4406 37.9148 59.85 36.5859 58.882 35.6344L63.8367 33.9773C65.2148 33.518 65.9531 32.025 65.4938 30.6633C65.0344 29.3016 63.5414 28.5469 62.1797 29.0063L46.4297 34.2563C45.0516 34.7156 44.3133 36.2086 44.7727 37.5703C45.232 38.932 46.725 39.6867 48.0867 39.2273L50.0062 38.5875C49.9734 38.8336 49.957 39.0961 49.957 39.3586C49.957 42.2625 52.3031 44.6086 55.207 44.6086C58.1109 44.6086 60.457 42.2625 60.457 39.3586L60.4406 39.375Z" fill="#CCCCCC"/>
</g>
<defs>
<clipPath id="clip0_37_74">
<rect width="84" height="84" fill="white"/>
</clipPath>
</defs>
</svg>
