<svg width="24" height="24" viewBox="0 0 24 24" fill="none" xmlns="http://www.w3.org/2000/svg">
<path d="M21.7102 8.70993C22.9602 7.45993 22.3902 5.99993 21.7102 5.28993L18.7102 2.28993C17.4502 1.03993 16.0002 1.60993 15.2902 2.28993L13.5902 3.99993H11.0002C9.10017 3.99993 8.00017 4.99993 7.44017 6.14993L3.00017 10.5899V14.5899L2.29017 15.2899C1.04017 16.5499 1.61017 17.9999 2.29017 18.7099L5.29017 21.7099C5.83017 22.2499 6.41017 22.4499 6.96017 22.4499C7.67017 22.4499 8.32017 22.0999 8.71017 21.7099L11.4102 18.9999H15.0002C16.7002 18.9999 17.5602 17.9399 17.8702 16.8999C19.0002 16.5999 19.6202 15.7399 19.8702 14.8999C21.4202 14.4999 22.0002 13.0299 22.0002 11.9999V8.99993H21.4102L21.7102 8.70993ZM20.0002 11.9999C20.0002 12.4499 19.8102 12.9999 19.0002 12.9999H18.0002V13.9999C18.0002 14.4499 17.8102 14.9999 17.0002 14.9999H16.0002V15.9999C16.0002 16.4499 15.8102 16.9999 15.0002 16.9999H10.5902L7.31017 20.2799C7.00017 20.5699 6.82017 20.3999 6.71017 20.2899L3.72017 17.3099C3.43017 16.9999 3.60017 16.8199 3.71017 16.7099L5.00017 15.4099V11.4099L7.00017 9.40993V10.9999C7.00017 12.2099 7.80017 13.9999 10.0002 13.9999C12.2002 13.9999 13.0002 12.2099 13.0002 10.9999H20.0002V11.9999ZM20.2902 7.28993L18.5902 8.99993H11.0002V10.9999C11.0002 11.4499 10.8102 11.9999 10.0002 11.9999C9.19017 11.9999 9.00017 11.4499 9.00017 10.9999V7.99993C9.00017 7.53993 9.17017 5.99993 11.0002 5.99993H14.4102L16.6902 3.71993C17.0002 3.42993 17.1802 3.59993 17.2902 3.70993L20.2802 6.68993C20.5702 6.99993 20.4002 7.17993 20.2902 7.28993Z" fill="white"/>
</svg>
