<svg width="84" height="84" viewBox="0 0 84 84" fill="none" xmlns="http://www.w3.org/2000/svg">
<path d="M42 7C61.3305 7 77 22.6695 77 42C77 44.5445 76.727 47.0225 76.2125 49.413L69.9755 43.1725C69.9918 42.7875 70 42.3967 70 42C69.9982 35.9015 68.0054 29.9703 64.3244 25.108C60.6435 20.2457 55.4757 16.7181 49.6065 15.0613C43.7374 13.4046 37.4878 13.7093 31.8077 15.9293C26.1276 18.1492 21.3276 22.1629 18.1372 27.3603C14.9468 32.5577 13.5405 38.6546 14.132 44.7243C14.7236 50.7941 17.2807 56.5047 21.4146 60.9883C25.5485 65.4719 31.0332 68.4832 37.035 69.5646C43.0369 70.646 49.2277 69.7383 54.6665 66.9795C55.2078 67.8428 55.853 68.649 56.602 69.398C57.659 70.4585 58.842 71.3125 60.1055 71.96C54.6455 75.2658 48.3828 77.0092 42 77C22.6695 77 7 61.3305 7 42C7 22.6695 22.6695 7 42 7ZM66.5 49.602L71.449 54.551C72.4124 55.5141 73.0739 56.7373 73.3523 58.0707C73.6308 59.4042 73.5141 60.7899 73.0166 62.058C72.5192 63.3261 71.6625 64.4216 70.5516 65.21C69.4408 65.9984 68.124 66.4456 66.7627 66.4967C65.4015 66.5478 64.0549 66.2006 62.8881 65.4977C61.7212 64.7948 60.7848 63.7667 60.1937 62.5394C59.6025 61.3122 59.3823 59.9391 59.5599 58.5885C59.7376 57.238 60.3055 55.9686 61.194 54.936L61.551 54.551L66.5 49.602ZM42 52.5C47.131 52.5 51.7475 54.7085 54.95 58.2295L51.6425 61.2395C48.8775 60.137 45.563 59.5 42 59.5C38.437 59.5 35.1225 60.1405 32.3575 61.236L29.05 58.226C30.6905 56.422 32.6899 54.9808 34.92 53.9948C37.1501 53.0087 39.5616 52.4996 42 52.5ZM29.75 35C31.1424 35 32.4777 35.5531 33.4623 36.5377C34.4469 37.5223 35 38.8576 35 40.25C35 41.6424 34.4469 42.9777 33.4623 43.9623C32.4777 44.9469 31.1424 45.5 29.75 45.5C28.3576 45.5 27.0223 44.9469 26.0377 43.9623C25.0531 42.9777 24.5 41.6424 24.5 40.25C24.5 38.8576 25.0531 37.5223 26.0377 36.5377C27.0223 35.5531 28.3576 35 29.75 35ZM54.25 35C55.6424 35 56.9777 35.5531 57.9623 36.5377C58.9469 37.5223 59.5 38.8576 59.5 40.25C59.5 41.6424 58.9469 42.9777 57.9623 43.9623C56.9777 44.9469 55.6424 45.5 54.25 45.5C52.8576 45.5 51.5223 44.9469 50.5377 43.9623C49.5531 42.9777 49 41.6424 49 40.25C49 38.8576 49.5531 37.5223 50.5377 36.5377C51.5223 35.5531 52.8576 35 54.25 35Z" fill="#CCCCCC"/>
</svg>
