<svg width="84" height="84" viewBox="0 0 84 84" fill="none" xmlns="http://www.w3.org/2000/svg">
<path d="M50.26 49.805C47.9203 51.6914 45.0054 52.7201 42 52.7201C38.9946 52.7201 36.0797 51.6914 33.74 49.805C33.0253 49.2109 32.1038 48.9251 31.1783 49.0104C30.2528 49.0958 29.3991 49.5452 28.805 50.26C28.2109 50.9748 27.9251 51.8962 28.0104 52.8217C28.0958 53.7472 28.5453 54.6009 29.26 55.195C32.8347 58.1791 37.3435 59.8137 42 59.8137C46.6565 59.8137 51.1653 58.1791 54.74 55.195C55.4548 54.6009 55.9043 53.7472 55.9896 52.8217C56.0749 51.8962 55.7891 50.9748 55.195 50.26C54.9009 49.9061 54.5399 49.6136 54.1327 49.3992C53.7255 49.1848 53.28 49.0527 52.8217 49.0104C51.8963 48.9251 50.9748 49.2109 50.26 49.805ZM31.5 38.5C32.1922 38.5 32.8689 38.2947 33.4445 37.9101C34.0201 37.5256 34.4687 36.9789 34.7336 36.3394C34.9985 35.6999 35.0678 34.9961 34.9328 34.3172C34.7977 33.6383 34.4644 33.0146 33.9749 32.5251C33.4854 32.0356 32.8618 31.7023 32.1828 31.5673C31.5039 31.4322 30.8002 31.5015 30.1606 31.7664C29.5211 32.0313 28.9745 32.4799 28.5899 33.0555C28.2053 33.6311 28 34.3078 28 35C28 35.9283 28.3688 36.8185 29.0251 37.4749C29.6815 38.1313 30.5718 38.5 31.5 38.5ZM52.5 31.5C51.8078 31.5 51.1311 31.7053 50.5555 32.0899C49.9799 32.4744 49.5313 33.0211 49.2664 33.6606C49.0015 34.3001 48.9322 35.0039 49.0673 35.6828C49.2023 36.3618 49.5357 36.9854 50.0251 37.4749C50.5146 37.9644 51.1383 38.2977 51.8172 38.4328C52.4961 38.5678 53.1999 38.4985 53.8394 38.2336C54.4789 37.9687 55.0256 37.5201 55.4102 36.9445C55.7947 36.3689 56 35.6922 56 35C56 34.0717 55.6313 33.1815 54.9749 32.5251C54.3185 31.8688 53.4283 31.5 52.5 31.5ZM42 7C35.0777 7 28.3108 9.05271 22.5551 12.8986C16.7993 16.7444 12.3133 22.2107 9.66423 28.6061C7.01516 35.0015 6.32205 42.0388 7.67253 48.8282C9.02301 55.6175 12.3564 61.8539 17.2513 66.7487C22.1461 71.6436 28.3825 74.977 35.1719 76.3275C41.9612 77.678 48.9985 76.9849 55.3939 74.3358C61.7893 71.6867 67.2556 67.2007 71.1014 61.445C74.9473 55.6892 77 48.9223 77 42C77 37.4037 76.0947 32.8525 74.3358 28.6061C72.5769 24.3597 69.9988 20.5013 66.7487 17.2513C63.4987 14.0012 59.6403 11.4231 55.3939 9.66422C51.1475 7.9053 46.5963 7 42 7ZM42 70C36.4621 70 31.0486 68.3578 26.444 65.2812C21.8395 62.2045 18.2506 57.8315 16.1314 52.7151C14.0121 47.5988 13.4576 41.9689 14.538 36.5375C15.6184 31.106 18.2852 26.1169 22.201 22.201C26.1169 18.2851 31.106 15.6184 36.5375 14.538C41.969 13.4576 47.5988 14.0121 52.7151 16.1314C57.8315 18.2506 62.2045 21.8395 65.2812 26.444C68.3578 31.0486 70 36.4621 70 42C70 49.4261 67.05 56.548 61.799 61.799C56.548 67.05 49.4261 70 42 70Z" fill="#CCCCCC"/>
</svg>
