<svg width="200" height="40" viewBox="0 0 200 40" fill="none" xmlns="http://www.w3.org/2000/svg">
<g clip-path="url(#clip0_3_2)">
<path d="M13.8829 33.6029H8.00547V12.4678H1.29684V7.56989H20.6213V12.4678H13.8829V33.6029ZM31.4669 34.0779C27.1033 34.0779 21.5227 31.8516 21.5227 25.0242V16.1486C21.5227 9.32126 27.0143 7.09495 31.4669 7.09495C35.8305 7.09495 41.4111 9.32126 41.4111 16.1486V25.0242C41.4111 31.8516 35.8305 34.0779 31.4669 34.0779ZM31.4669 29.1503C33.6338 29.1503 35.6524 27.9629 35.6524 25.0539V16.1189C35.6524 13.2099 33.6338 12.0225 31.4669 12.0225C29.3 12.0225 27.2814 13.2099 27.2814 16.1189V25.0539C27.2814 27.9629 29.3 29.1503 31.4669 29.1503ZM67.1543 7.56989L69.6478 33.6029H64.2155L62.8501 16.8611L59.4958 32H53.4995L50.1749 17.0392L48.7798 33.6029H43.3475L45.841 7.56989H52.6684L56.4976 24.9648L60.3269 7.56989H67.1543ZM95.1265 24.9945V7.56989H100.232V33.6029H93.583L85.8948 16.1783V33.6029H80.7891V7.56989H87.4383L95.1265 24.9945ZM123.228 33.6029H117.35V12.4678H110.641V7.56989H129.966V12.4678H123.228V33.6029ZM140.811 34.0779C136.448 34.0779 130.867 31.8516 130.867 25.0242V16.1486C130.867 9.32126 136.359 7.09495 140.811 7.09495C145.175 7.09495 150.756 9.32126 150.756 16.1486V25.0242C150.756 31.8516 145.175 34.0779 140.811 34.0779ZM140.811 29.1503C142.978 29.1503 144.997 27.9629 144.997 25.0539V16.1189C144.997 13.2099 142.978 12.0225 140.811 12.0225C138.645 12.0225 136.626 13.2099 136.626 16.1189V25.0539C136.626 27.9629 138.645 29.1503 140.811 29.1503ZM176.499 7.56989L178.992 33.6029H173.56L172.195 16.8611L168.84 32H162.844L159.519 17.0392L158.124 33.6029H152.692L155.186 7.56989H162.013L165.842 24.9648L169.671 7.56989H176.499ZM189.354 34.0779C186.059 34.0779 183.09 33.0389 180.686 31.4657L181.576 26.3897C183.328 27.6364 186.326 28.9425 189.057 28.9425C190.927 28.9425 192.411 28.1411 192.441 26.3897C192.471 24.7571 191.164 23.8368 188.463 22.8276L187.127 22.3229C182.853 20.72 180.775 18.3453 180.775 14.4269C180.775 9.88526 184.189 7.09495 189.443 7.09495C192.085 7.09495 194.697 7.83705 196.745 9.02442L196.003 13.8333C193.836 12.6756 191.758 12.2303 189.858 12.2303C188.107 12.2303 186.652 12.9131 186.623 14.5754C186.593 16.2971 188.077 16.9204 190.482 17.8406L191.818 18.3453C195.766 19.8295 198.318 21.9964 198.318 26.3897C198.318 31.1985 194.519 34.0779 189.354 34.0779Z" fill="#17302A"/>
</g>
<defs>
<clipPath id="clip0_3_2">
<rect width="200" height="40" fill="white"/>
</clipPath>
</defs>
</svg>
