<svg xmlns="http://www.w3.org/2000/svg" xmlns:xlink="http://www.w3.org/1999/xlink"><defs><symbol stroke="transparent" viewBox="0 0 16 16" id="badge-information"><rect x="1.833" y="1.833" width="12.333" height="12.333" rx="6.167" fill="#fff" stroke="#BCC2CC" /><path d="M7.333 11.334h1.322v-4.87H7.333v4.87zm0-5.674h1.334v-.993H7.333v.993z" fill="#BCC2CC" stroke="none" /></symbol><symbol fill="none" viewBox="0 0 13 13" id="badge-media-count"><rect x=".5" y="3.395" width="9.105" height="9.105" rx=".5" fill="#707680" stroke="#707680" stroke-linejoin="round" /><path d="M4.421.5a.5.5 0 000 1v-1zM11.5 8.579a.5.5 0 101 0h-1zM4.421 1.5H10v-1H4.421v1zM11.5 3v5.579h1V3h-1zM10 1.5A1.5 1.5 0 0111.5 3h1A2.5 2.5 0 0010 .5v1z" fill="#707680" stroke="#707680" /></symbol><symbol stroke="transparent" viewBox="0 0 16 16" id="badge-new"><rect width="16" height="16" rx="4" fill="#707680" /><path d="M5 12h1.359V6.262h.032L9.478 12H11V4H9.641v5.318H9.61L6.729 4H5v8z" fill="#fff" /></symbol><symbol stroke="transparent" viewBox="0 0 20 20" id="button-brunch"><circle cx="10" cy="10" r="10" /><path d="M5 15.936l.87-1.528-.5-.353.124-.223.548.284.73-1.266c1.13-1.98 2.246-3.97 3.398-5.939.59-1.01 1.232-1.995 2.05-2.838.329-.338.727-.607 1.096-.904.05-.04.112-.063.17-.088.162-.069.327-.138.489-.008.164.133.147.329.087.483-.16.417-.322.84-.544 1.227-.419.73-1.04 1.266-1.759 1.689l-.178.102c.205.358.059.67-.164.935-.329.393-.694.757-1.04 1.136-.814.892-1.498 1.879-2.099 2.925-.03.053-.051.112-.093.206.367-.34.695-.662 1.04-.963.545-.473 1.123-.9 1.819-1.125.2-.064.41-.108.618-.126.786-.068 1.247.443 1.134 1.234-.09.634-.407 1.145-.838 1.593-.877.913-1.944 1.511-3.157 1.822-.685.176-1.392.27-2.092.375-.186.028-.293.106-.37.255a.573.573 0 00-.08.216c-.03.361-.27.537-.562.668-.208.094-.418.183-.627.275a8.11 8.11 0 00-.07-.064zm1.744-1.723c.073 0 .104.003.134 0 .701-.086 1.388-.233 2.046-.495 1.129-.449 2.058-1.15 2.643-2.24.153-.285.228-.624.283-.95.049-.293-.138-.466-.434-.444a1.318 1.318 0 00-.496.122c-.352.18-.705.369-1.03.595-.961.67-1.746 1.525-2.456 2.453-.232.305-.448.622-.69.96zm4.393-7.795c1.006-.695 1.837-1.534 2.227-2.736a17.884 17.884 0 00-2.227 2.736zm-1.07 1.69l.027.012c.263-.255.532-.503.787-.765.33-.34.329-.359.147-.838l-.96 1.592zM6.4 15.5h7.5v.25H6.4z" fill="#fff" /></symbol><symbol stroke="transparent" viewBox="0 0 20 20" id="button-facebook"><path d="M20 10.061C20 4.505 15.523 0 10 0S0 4.505 0 10.061C0 15.083 3.657 19.245 8.438 20v-7.03h-2.54v-2.91h2.54V7.845c0-2.522 1.492-3.915 3.777-3.915 1.094 0 2.238.197 2.238.197v2.476h-1.26c-1.243 0-1.63.775-1.63 1.57v1.888h2.773l-.443 2.908h-2.33V20c4.78-.755 8.437-4.917 8.437-9.939z" /></symbol><symbol stroke="transparent" viewBox="0 0 20 20" id="button-homepage"><circle cx="10" cy="10" r="10" /><path d="M8.667 15.333v-3.5a.5.5 0 01.5-.5h1.666a.5.5 0 01.5.5v3a.5.5 0 00.5.5h2.334a.5.5 0 00.5-.5V10h.697a.5.5 0 00.334-.872l-5.364-4.827a.5.5 0 00-.668 0L4.302 9.128a.5.5 0 00.334.872h.697v4.833a.5.5 0 00.5.5h2.834z" fill="#fff" /></symbol><symbol stroke="transparent" viewBox="0 0 20 20" id="button-kakao"><g clip-path="url(#button-kakao_a)"><path d="M9.548 0C4.276 0 0 3.974 0 8.875c0 2.895 1.492 5.465 3.8 7.086v3.894a.15.15 0 00.148.148c.031 0 .06-.009.086-.029l3.417-2.442c.676.14 1.378.217 2.1.217 5.274 0 9.548-3.973 9.548-8.874C19.096 3.974 14.822 0 9.548 0zm-2.85 11.245c.941 0 1.746-.61 2.065-1.469h1.441C9.839 11.44 8.41 12.68 6.698 12.68c-1.985 0-3.597-1.672-3.597-3.731 0-2.06 1.609-3.731 3.597-3.731 1.712 0 3.144 1.24 3.506 2.9h-1.44C8.443 7.26 7.638 6.65 6.697 6.65c-1.224 0-2.214 1.03-2.214 2.299 0 1.266.99 2.296 2.214 2.296zm9.297 1.435h-1.34V9.385c0-.396-.078-.67-.226-.818-.149-.149-.365-.223-.642-.223a1.074 1.074 0 00-.827.388 1.418 1.418 0 00-.257.468 1.98 1.98 0 00-.097.636v2.844h-1.34V5.066h1.351V7.94c.149-.151.328-.285.537-.397.276-.148.59-.225.935-.225.622 0 1.101.18 1.424.53.322.352.485.888.485 1.595v3.238h-.003z" /></g><defs></defs></symbol><clipPath id="button-kakao_a"><path fill="#fff" d="M0 0h19.096v20H0z" /></clipPath><symbol stroke="transparent" viewBox="0 0 20 20" id="button-naverblog"><path d="M4.365 7.847a.69.69 0 100 1.379.69.69 0 000-1.38zm6.803 1.411a.742.742 0 100-1.484.742.742 0 000 1.484z" /><path d="M17.327 1H2.675A2.675 2.675 0 000 3.675v8.696a2.675 2.675 0 002.675 2.675H7.85l1.76 4.147s.121.36.414.36c.292 0 .414-.36.414-.36l1.76-4.147h5.127A2.675 2.675 0 0020 12.371V3.675A2.671 2.671 0 0017.327 1zM6.284 8.687c-.008 1.59-1.652 1.634-1.652 1.634-.635 0-.995-.42-.995-.42v.285H2.441V5.251c-.006-.002-.006-.002 0-.003v.003c.074.012 1.197-.003 1.197-.003v1.888c.282-.48 1.095-.472 1.095-.472 1.774.164 1.551 2.023 1.551 2.023zm2.108-1.872v3.38H7.22V6.85c0-.456-.565-.581-.565-.581v-1.18c1.872.075 1.737 1.726 1.737 1.726zm2.777 3.509c-1.085 0-1.964-.81-1.964-1.809 0-.999.88-1.808 1.963-1.808 1.085 0 1.964.81 1.964 1.808 0 1-.88 1.809-1.963 1.809zm6.417 0s.016 1.716-1.727 1.716h-.532v-1.112h.321s.734.067.726-1.063c0 0-.143.457-1.172.457 0 0-1.458-.105-1.458-1.528v-.539s.034-1.475 1.635-1.593c0 0 .632-.067 1.02.456v-.362h1.187v3.568z" /><path d="M15.724 9.24a.725.725 0 100-1.45.725.725 0 000 1.45z" /></symbol><symbol stroke="transparent" viewBox="0 0 20 20" id="button-youtube"><g clip-path="url(#button-youtube_a)"><path d="M19.582 5.271c-.23-.894-.908-1.598-1.768-1.837C16.254 3 10 3 10 3s-6.255 0-7.814.434c-.86.24-1.538.943-1.768 1.837C0 6.892 0 10.273 0 10.273s0 3.38.418 5.002c.23.893.908 1.597 1.768 1.836 1.56.434 7.814.434 7.814.434s6.255 0 7.814-.434c.86-.239 1.538-.943 1.768-1.837.418-1.62.418-5.001.418-5.001s0-3.38-.418-5.002z" /><path d="M7.955 13.343l5.227-3.07-5.227-3.07v6.14z" fill="#fff" /></g><defs></defs></symbol><clipPath id="button-youtube_a"><path fill="#fff" transform="translate(0 3)" d="M0 0h20v14.546H0z" /></clipPath><symbol fill="none" viewBox="0 0 36 36" id="facebook-large"><g clip-path="url(#facebook-large_clip0_116_3790)"><g clip-path="url(#facebook-large_clip1_116_3790)"><path d="M36 18c0-9.941-8.059-18-18-18S0 8.059 0 18c0 8.441 5.812 15.525 13.652 17.47V23.5H9.94V18h3.712v-2.37c0-6.127 2.773-8.966 8.787-8.966 1.141 0 3.109.224 3.914.447v4.986c-.425-.045-1.163-.067-2.08-.067-2.95 0-4.091 1.118-4.091 4.025V18h5.88l-1.011 5.5h-4.87v12.368C29.095 34.792 36 27.203 36 18z" fill="#0866FF" /><path d="M25.05 23.5l1.01-5.5h-5.879v-1.945c0-2.907 1.14-4.025 4.092-4.025.916 0 1.654.022 2.08.067V7.11c-.806-.224-2.774-.447-3.914-.447-6.015 0-8.788 2.84-8.788 8.966V18H9.94v5.5h3.711v11.97a18.032 18.032 0 006.53.398V23.501h4.869z" fill="#fff" /></g></g><defs></defs></symbol><clipPath id="facebook-large_clip0_116_3790"><path fill="#fff" d="M0 0h36v36H0z" /></clipPath><clipPath id="facebook-large_clip1_116_3790"><path fill="#fff" d="M0 0h36v36H0z" /></clipPath><symbol viewBox="0 0 36 36" fill="none" id="facebook-medium"><g clip-path="url(#facebook-medium_clip0_116_3790)"><g clip-path="url(#facebook-medium_clip1_116_3790)"><path d="M36 18c0-9.941-8.059-18-18-18S0 8.059 0 18c0 8.441 5.812 15.525 13.652 17.47V23.5H9.94V18h3.712v-2.37c0-6.127 2.773-8.966 8.787-8.966 1.141 0 3.109.224 3.914.447v4.986c-.425-.045-1.163-.067-2.08-.067-2.95 0-4.091 1.118-4.091 4.025V18h5.88l-1.011 5.5h-4.87v12.368C29.095 34.792 36 27.203 36 18z" fill="#0866FF" /><path d="M25.05 23.5l1.01-5.5h-5.879v-1.945c0-2.907 1.14-4.025 4.092-4.025.916 0 1.654.022 2.08.067V7.11c-.806-.224-2.774-.447-3.914-.447-6.015 0-8.788 2.84-8.788 8.966V18H9.94v5.5h3.711v11.97a18.032 18.032 0 006.53.398V23.501h4.869z" fill="#fff" /></g></g><defs></defs></symbol><clipPath id="facebook-medium_clip0_116_3790"><path fill="#fff" d="M0 0h36v36H0z" /></clipPath><clipPath id="facebook-medium_clip1_116_3790"><path fill="#fff" d="M0 0h36v36H0z" /></clipPath><symbol fill="none" viewBox="0 0 18 18" id="facebook-small"><g clip-path="url(#facebook-small_clip0_117_3816)"><path d="M18 9a9 9 0 10-11.174 8.735V11.75H4.97V9h1.856V7.815c0-3.063 1.386-4.483 4.394-4.483.57 0 1.554.112 1.956.223v2.493a11.568 11.568 0 00-1.04-.033c-1.475 0-2.045.559-2.045 2.012V9h2.94l-.506 2.75h-2.434v6.184C14.547 17.396 18 13.601 18 9H18z" fill="#fff" /></g><defs></defs></symbol><clipPath id="facebook-small_clip0_117_3816"><path fill="#fff" d="M0 0h18v18H0z" /></clipPath><symbol fill="none" viewBox="0 0 16 16" id="icon-ai-badge"><path d="M1 6a5 5 0 015-5h4a5 5 0 015 5v4a5 5 0 01-5 5H6a5 5 0 01-5-5V6z" fill="#D9D9D9" /><path d="M1 6a5 5 0 015-5h4a5 5 0 015 5v4a5 5 0 01-5 5H6a5 5 0 01-5-5V6z" fill="url(#icon-ai-badge_paint0_linear_2020_31192)" /><path d="M10.14 10.456V4.693h1.2v5.763h-1.2zM4.122 10.456l2.05-5.763h1.243l2.024 5.763H8.213l-.479-1.378h-2.05l-.47 1.378H4.122zm2.554-4.41L5.953 8.23h1.504l-.748-2.184h-.033z" fill="#fff" /><defs></defs></symbol><linearGradient id="icon-ai-badge_paint0_linear_2020_31192" x1="1" y1="12" x2="15" y2="5" gradientUnits="userSpaceOnUse"><stop stop-color="#725EEF" /><stop offset="1" stop-color="#D668E9" /></linearGradient><symbol fill="none" viewBox="0 0 9 8" id="icon-arrow-down"><path d="M1 2.333l3.333 3.333 3.334-3.333" /></symbol><symbol fill="none" viewBox="0 0 16 16" id="icon-arrow-right"><path d="M4.666 14.666l6.667-6.667-6.667-6.666" /></symbol><symbol viewBox="0 0 18 18" id="icon-checkbox"><rect width="15" height="15" x="1.5" y="1.5" rx="2" /><path stroke="#fff" stroke-linecap="round" stroke-linejoin="round" d="M5.25 8.25l3 3L12.75 6" /></symbol><symbol viewBox="0 0 14 14" id="icon-checkbox-checker"><path fill="none" stroke="#FFF" stroke-linecap="round" stroke-linejoin="round" stroke-width="1.5" d="M3.8 6.754l2.914 2.445 3.814-4.544" /></symbol><symbol viewBox="0 0 18 18" id="icon-close"><path d="M2.207 2.25L15.75 15.793M15.793 2.25L2.25 15.793" /></symbol><symbol stroke="transparent" viewBox="0 0 16 16" id="icon-meatball-menu"><path fill-rule="evenodd" clip-rule="evenodd" d="M1.5 8a1.5 1.5 0 113 0 1.5 1.5 0 01-3 0zM6.5 8a1.5 1.5 0 113 0 1.5 1.5 0 01-3 0zM11.5 8a1.5 1.5 0 113 0 1.5 1.5 0 01-3 0z" /></symbol><symbol fill="none" viewBox="0 0 20 20" id="icon-more"><g clip-path="url(#icon-more_clip0_57_464)" stroke="#3B82FF" stroke-width="2" stroke-linecap="round" stroke-linejoin="round"><path d="M1 10h18M13.2 4.17l5.833 5.833-5.833 5.834" /></g><defs></defs></symbol><clipPath id="icon-more_clip0_57_464"><path fill="#fff" d="M0 0h20v20H0z" /></clipPath><symbol fill="none" viewBox="0 0 16 16" id="icon-new-notice"><rect width="16" height="16" rx="4" fill="#707680" /><path d="M5 12h1.359V6.262h.032L9.478 12H11V4H9.641v5.318H9.61L6.729 4H5v8z" fill="#fff" /></symbol><symbol fill="none" viewBox="0 0 12 12" id="icon-page"><rect x="1.5" y="3.5" width="7" height="7" rx=".5" fill="#fff" stroke="#fff" stroke-linejoin="round" /><path d="M4.5 1.5h4a2 2 0 012 2v4" stroke="#fff" stroke-linecap="round" stroke-linejoin="round" /></symbol><symbol fill="none" viewBox="0 0 10 10" id="icon-plus"><path stroke="#BCC2CC" d="M5 0v10M10 5H0" /></symbol><symbol viewBox="0 0 18 18" id="icon-radio-button"><rect width="14" height="14" x="2" y="2" rx="7.5" /><rect width="6" height="6" x="6" y="6" stroke="#fff" fill="#fff" rx="3" /></symbol><symbol fill="none" viewBox="0 0 16 16" id="icon-refresh"><path d="M14.667 7.667L12.56 9.792l-2.105-2.125" /><path d="M6.948 13.333c-3.101 0-5.615-2.537-5.615-5.666C1.333 4.537 3.847 2 6.949 2c3.1 0 5.614 2.537 5.614 5.667v1.416" /></symbol><symbol viewBox="0 0 12 12" id="icon-search-small"><g fill="none" fill-rule="evenodd" stroke-linecap="round" stroke-linejoin="round"><circle cx="4.667" cy="4.667" r="3.667" /><path d="M11 11L7.64 7.64" /></g></symbol><symbol viewBox="0 0 14 14" id="icon-star"><path d="M6.882.584L4.95 4.681l-4.33.662c-.112.017-.167.193-.07.291l3.12 3.18-.736 4.487c-.023.142.097.234.189.183L7 11.35l3.877 2.134c.092.05.212-.04.19-.183l-.736-4.487 3.119-3.18c.097-.098.042-.274-.07-.291L9.05 4.68 7.118.584c-.053-.112-.183-.112-.236 0z" fill-rule="evenodd" /></symbol><symbol viewBox="0 0 16 16" id="icon-thumb-up"><path d="M8.725 6.2a.498.498 0 00.474.657h3.477a1.01 1.01 0 01.995 1.192l-.962 5.288a1.01 1.01 0 01-.994.83H6.177a1.01 1.01 0 01-1.01-1.011v-6.24c0-.241.086-.474.243-.657l3.619-4.223a.583.583 0 01.702-.141c.21.105.312.35.237.573L8.725 6.2zM2.333 14V7.333" /></symbol><symbol viewBox="0 0 16 16" id="icon-toggle"><rect x="1.834" y="1.833" width="12.333" height="12.333" rx="6.167" /><path d="M4.666 8l2.667 2.667 4-4.667" /></symbol><symbol fill="none" viewBox="0 0 12 12" id="icon-x"><path fill="#000" d="M0 0h12v12H0z" /><path stroke="#fff" d="M9.536 2.464L2.464 9.536M9.536 9.536L2.464 2.464" /></symbol><symbol viewBox="0 0 24 24" id="instagram"><path fill-rule="evenodd" d="M13.315 0c1.33.004 2 .012 2.59.03l.25.008c.248.01.497.02.793.034 1.277.058 2.15.261 2.912.558.79.306 1.459.717 2.126 1.384a5.886 5.886 0 011.384 2.125c.297.764.5 1.636.558 2.913l.034.793.008.25c.018.59.026 1.26.029 2.59v.951L24 12v.364l-.001.951c-.003 1.33-.01 2-.03 2.59l-.008.25c-.009.248-.02.497-.033.793-.059 1.277-.261 2.15-.558 2.912a5.881 5.881 0 01-1.384 2.126 5.89 5.89 0 01-2.126 1.384c-.763.297-1.635.5-2.912.558l-.793.034-.25.008c-.59.018-1.26.026-2.59.029h-2.63c-1.33-.003-2-.01-2.59-.03l-.25-.008c-.248-.009-.497-.02-.793-.033-1.277-.059-2.15-.261-2.913-.558a5.886 5.886 0 01-2.125-1.384A5.876 5.876 0 01.63 19.86c-.297-.763-.5-1.635-.558-2.912a71.299 71.299 0 01-.034-.793l-.008-.25c-.018-.59-.026-1.26-.03-2.59v-2.63c.004-1.33.012-2 .03-2.59l.008-.25c.01-.248.02-.497.034-.793C.13 5.775.333 4.902.63 4.14a5.873 5.873 0 011.384-2.125A5.855 5.855 0 014.139.63C4.903.333 5.775.13 7.052.072c.296-.014.545-.025.793-.034l.25-.008c.59-.018 1.26-.026 2.59-.03h2.63zm-.598 2.162h-1.755l-.575.002a70.96 70.96 0 00-2.3.03l-.254.008-.682.03c-1.17.053-1.806.249-2.228.413-.56.218-.96.478-1.38.898-.42.42-.68.82-.898 1.38-.164.422-.36 1.058-.413 2.228l-.03.682-.009.254a77.442 77.442 0 00-.03 2.3v3.226c.004 1.156.012 1.749.03 2.3l.01.253c.008.212.017.43.029.683.053 1.17.249 1.805.413 2.228.218.56.478.96.898 1.38.42.42.82.68 1.38.898.422.164 1.058.36 2.228.413 1.012.046 1.457.063 3.236.068l.575.001h2.651c1.779-.006 2.224-.023 3.236-.07 1.17-.052 1.805-.248 2.228-.412.56-.218.96-.478 1.38-.898.42-.42.68-.82.898-1.38.164-.423.36-1.058.413-2.228.046-1.012.063-1.458.068-3.236l.001-.575v-2.076l-.001-.575c-.005-1.779-.022-2.224-.068-3.236-.054-1.17-.249-1.806-.413-2.228a3.724 3.724 0 00-.898-1.38c-.42-.42-.82-.68-1.38-.898-.423-.164-1.058-.36-2.228-.413l-.683-.03-.253-.009a77.442 77.442 0 00-2.3-.03h-.897zM12 5.838a6.162 6.162 0 110 12.324 6.162 6.162 0 010-12.324zM12 8a4 4 0 100 8 4 4 0 000-8zm6.406-3.846a1.44 1.44 0 110 2.88 1.44 1.44 0 010-2.88z" clip-rule="evenodd" /></symbol><symbol fill="none" viewBox="0 0 16 16" id="instagram-shaded"><g filter="url(#instagram-shaded_filter0_d)"><path fill="#fff" fill-rule="evenodd" d="M8.876 0c.887.002 1.333.007 1.727.02l.166.005.529.022c.851.04 1.433.175 1.942.372.526.205.972.478 1.416.923.445.445.719.89.923 1.417.198.509.333 1.09.372 1.942.01.197.016.363.023.528l.005.167c.012.393.018.84.02 1.726v1.754a60.402 60.402 0 01-.02 1.727l-.005.166-.023.529c-.039.851-.174 1.433-.372 1.942a3.904 3.904 0 01-.923 1.416c-.444.445-.89.719-1.416.923-.51.198-1.09.333-1.942.372-.197.01-.363.016-.529.023l-.166.005c-.394.012-.84.018-1.727.02H7.122a60.316 60.316 0 01-1.726-.02l-.167-.005-.528-.023c-.852-.039-1.433-.174-1.942-.372a3.916 3.916 0 01-1.417-.923 3.917 3.917 0 01-.923-1.416c-.198-.51-.333-1.09-.372-1.942l-.022-.529-.006-.166C.007 10.209.002 9.763 0 8.876V7.122c.002-.886.007-1.333.02-1.726l.005-.167.022-.528c.04-.852.174-1.433.372-1.942.205-.526.478-.972.923-1.417A3.92 3.92 0 012.759.419C3.268.222 3.849.086 4.7.047l.528-.022.167-.006C5.789.007 6.236.002 7.122 0h1.754zm-.399 1.44h-.956l-.214.001h-.383a56.81 56.81 0 00-1.533.02l-.17.007c-.14.005-.286.012-.454.02-.78.035-1.204.165-1.486.275a2.48 2.48 0 00-.92.598 2.48 2.48 0 00-.598.92c-.11.282-.24.706-.276 1.486l-.02.455-.005.169c-.012.367-.018.762-.02 1.533v.383l-.001.214v1.554c.003.77.009 1.165.02 1.533l.007.169c.005.141.012.286.02.455.035.78.165 1.204.275 1.485.145.374.318.64.598.92.28.28.547.454.92.599.282.11.706.24 1.486.275.674.031.971.042 2.157.046h2.151a39.697 39.697 0 002.157-.046c.78-.035 1.204-.166 1.485-.275.374-.145.64-.319.92-.599.28-.28.454-.546.599-.92.11-.282.24-.705.275-1.485.031-.675.042-.972.046-2.157V6.923a39.642 39.642 0 00-.046-2.157c-.035-.78-.166-1.204-.275-1.486a2.482 2.482 0 00-.599-.92 2.472 2.472 0 00-.92-.598c-.282-.11-.705-.24-1.485-.276l-.455-.02-.17-.005a49.286 49.286 0 00-1.532-.02H8.69l-.214-.001zm-.478 2.451a4.108 4.108 0 110 8.215 4.108 4.108 0 010-8.215zm0 1.442A2.667 2.667 0 108 10.666a2.667 2.667 0 00-.001-5.333zm4.27-2.564a.96.96 0 110 1.92.96.96 0 010-1.92z" clip-rule="evenodd" /></g><defs><filter id="instagram-shaded_filter0_d" width="19.999" height="19.998" x="-1" y="-1" color-interpolation-filters="sRGB" filterUnits="userSpaceOnUse"><feFlood flood-opacity="0" result="BackgroundImageFix"></feFlood><feColorMatrix in="SourceAlpha" values="0 0 0 0 0 0 0 0 0 0 0 0 0 0 0 0 0 0 127 0"></feColorMatrix><feOffset dx="1" dy="1"></feOffset><feGaussianBlur stdDeviation="1"></feGaussianBlur><feColorMatrix values="0 0 0 0 0 0 0 0 0 0 0 0 0 0 0 0 0 0 0.4 0"></feColorMatrix><feBlend in2="BackgroundImageFix" result="effect1_dropShadow"></feBlend><feBlend in="SourceGraphic" in2="effect1_dropShadow" result="shape"></feBlend></filter></defs></symbol><symbol fill="none" viewBox="0 0 18 18" id="instagram-small"><path d="M5.273.063C4.315.108 3.66.26 3.089.486c-.591.23-1.093.54-1.592 1.04A4.409 4.409 0 00.462 3.122C.24 3.694.09 4.349.048 5.307c-.042.958-.052 1.266-.047 3.71.005 2.444.016 2.75.062 3.71.046.958.198 1.612.423 2.184.23.591.54 1.093 1.04 1.592.502.5 1.003.806 1.597 1.035.572.221 1.227.372 2.185.414.958.042 1.266.052 3.71.047 2.443-.005 2.75-.016 3.71-.061.96-.046 1.611-.199 2.183-.423a4.41 4.41 0 001.592-1.04 4.41 4.41 0 001.035-1.597c.221-.572.372-1.227.414-2.184.042-.96.052-1.268.047-3.711-.005-2.444-.016-2.75-.061-3.71-.046-.96-.198-1.612-.423-2.184a4.418 4.418 0 00-1.04-1.592c-.501-.5-1.004-.806-1.597-1.035-.572-.221-1.227-.372-2.185-.414-.958-.041-1.266-.052-3.71-.047-2.444.005-2.75.015-3.71.062zm.105 16.27c-.878-.038-1.354-.184-1.672-.306a2.802 2.802 0 01-1.036-.671 2.773 2.773 0 01-.675-1.034c-.124-.317-.272-.793-.313-1.67-.045-.95-.054-1.234-.06-3.637-.004-2.403.005-2.687.046-3.636.038-.877.184-1.354.306-1.671.162-.421.357-.72.672-1.036a2.778 2.778 0 011.033-.675c.317-.124.793-.272 1.67-.313.95-.045 1.234-.054 3.637-.06 2.402-.005 2.687.004 3.637.046.876.038 1.354.183 1.67.306.421.162.72.357 1.037.671.316.315.511.613.675 1.034.124.317.271.792.313 1.67.045.95.055 1.234.06 3.636.004 2.402-.005 2.688-.046 3.636-.038.878-.184 1.354-.306 1.672-.162.42-.357.72-.672 1.036-.314.316-.613.511-1.033.675-.317.124-.794.271-1.67.313-.95.045-1.234.054-3.637.06-2.403.005-2.687-.005-3.636-.046M12.715 4.19a1.081 1.081 0 102.162-.004 1.081 1.081 0 00-2.162.004zM4.379 9.009a4.621 4.621 0 109.242-.018 4.621 4.621 0 00-9.242.018zM6 9.006a3 3 0 116-.012 3 3 0 01-6 .012z" fill="#fff" /></symbol><symbol viewBox="0 0 16 16" id="keyword-robot-icon"><path d="M13.333 6V4.667c0-.734-.6-1.334-1.333-1.334h-2c0-1.106-.893-2-2-2s-2 .894-2 2H4c-.733 0-1.333.6-1.333 1.334V6c-1.107 0-2 .893-2 2s.893 2 2 2v2.667C2.667 13.4 3.267 14 4 14h8c.733 0 1.333-.6 1.333-1.333V10c1.107 0 2-.893 2-2s-.893-2-2-2zM5 7.667c0-.554.447-1 1-1 .553 0 1 .446 1 1 0 .553-.447 1-1 1-.553 0-1-.447-1-1zm5.667 3.666H5.333V10h5.334v1.333zM10 8.667c-.553 0-1-.447-1-1 0-.554.447-1 1-1 .553 0 1 .446 1 1 0 .553-.447 1-1 1z" /></symbol><symbol stroke="transparent" viewBox="0 0 92 24" id="logo-crema"><path d="M8.62 6.253c1.109 0 2.155.379 3.042 1.073.095.063.222.095.317.032l2.472-1.516c.158-.095.19-.284.063-.41C12.898 3.852 10.806 3 8.62 3 3.866 3 0 7.01 0 11.905c0 4.927 3.866 8.906 8.62 8.906 2.218 0 4.31-.853 5.894-2.432.127-.126.095-.316-.063-.41l-2.504-1.516a.245.245 0 00-.317.031c-.887.695-1.933 1.074-3.042 1.074-2.852 0-5.165-2.526-5.165-5.653 0-3.126 2.345-5.652 5.197-5.652zM39.2 17.558v-4.232h7.765c.158 0 .285-.126.285-.252v-2.369a.283.283 0 00-.285-.284H39.2V6.284h9.031c.159 0 .286-.126.286-.252V3.663a.283.283 0 00-.286-.284H36.158a.283.283 0 00-.285.284v16.58c0 .157.127.283.285.283h12.074c.159 0 .286-.126.286-.252v-2.369a.283.283 0 00-.286-.284h-9.031v-.063zm21.804-6.505l-4.659-7.516c-.095-.126-.222-.221-.38-.221H52.7a.284.284 0 00-.285.284v16.579c0 .158.126.284.285.284h2.757a.284.284 0 00.285-.284V8.4l5.039 7.61c.095.158.348.158.443 0l5.07-7.705V20.21c0 .158.128.285.286.285h2.757a.284.284 0 00.285-.285V3.6a.284.284 0 00-.285-.284h-3.264c-.159 0-.285.095-.38.22l-4.69 7.517zM79.13 3.505L72 20.085c-.063.189.063.378.254.378h2.788c.19 0 .349-.095.412-.284l5.45-13.2 5.452 13.2a.451.451 0 00.412.284h2.788c.19 0 .317-.19.254-.379L82.616 3.505c-.031-.094-.127-.158-.253-.158h-2.98c-.126 0-.221.064-.253.158zm-50.863 9.948h.064c.032 0 3.58-.632 3.486-4.642-.127-4.264-3.74-5.432-5.863-5.464h-7.257a.284.284 0 00-.285.285V20.21c0 .158.127.284.285.284h2.82a.284.284 0 00.286-.284V6.316h3.359c1.014 0 1.838.22 2.408.695 0 0 .92.663.92 1.768 0 .032.063.758-.508 1.39-.538.6-1.49.915-2.757.915h-1.87c-.221 0-.348.221-.221.41l5.64 8.748c.096.127.222.221.38.221h3.17c.222 0 .349-.22.222-.41l-4.247-6.537-.032-.063z" /></symbol><symbol stroke="transparent" viewBox="0 0 180 17" id="logo-crema-review"><g clip-path="url(#logo-crema-review_a)"><path d="M8.146 3.056c1.05.002 2.068.36 2.882 1.016a.264.264 0 00.299 0l2.359-1.428a.253.253 0 00.122-.183.247.247 0 00-.07-.208A7.97 7.97 0 008.146 0a8.378 8.378 0 00-5.82 2.516A8.15 8.15 0 000 8.35a8.15 8.15 0 002.324 5.835A8.378 8.378 0 008.146 16.7a7.97 7.97 0 005.592-2.276.248.248 0 00-.052-.39l-2.36-1.428a.264.264 0 00-.298 0 4.57 4.57 0 01-2.882 1.016c-2.695 0-4.897-2.371-4.897-5.287s2.202-5.28 4.897-5.28zM36.15 13.645V9.661h7.362a.256.256 0 00.18-.073.249.249 0 00.073-.177V7.2a.249.249 0 00-.074-.176.256.256 0 00-.18-.074h-7.36V3.056h8.563a.255.255 0 00.179-.073.249.249 0 00.074-.177V.596a.256.256 0 00-.073-.18.263.263 0 00-.18-.077H33.269a.263.263 0 00-.18.078.256.256 0 00-.074.18v15.53c0 .066.027.13.074.177a.256.256 0 00.18.073h11.445a.256.256 0 00.179-.073.249.249 0 00.074-.177v-2.21a.249.249 0 00-.074-.177.255.255 0 00-.18-.073H36.15v-.022zm19.844-6.443L51.74.442a.252.252 0 00-.224-.125h-3.18a.263.263 0 00-.18.078.256.256 0 00-.074.18v15.552c0 .066.026.13.074.177a.256.256 0 00.18.073h2.62a.263.263 0 00.182-.073.257.257 0 00.08-.177V5.89a.248.248 0 01.18-.25.257.257 0 01.29.11l4.307 6.436a.261.261 0 00.333.08.261.261 0 00.093-.08l4.352-6.51a.254.254 0 01.272-.078.254.254 0 01.176.218v10.31c0 .066.027.13.075.177a.256.256 0 00.179.073h2.62a.263.263 0 00.183-.073.256.256 0 00.079-.177V.573a.256.256 0 00-.077-.182.263.263 0 00-.184-.075h-3.18a.28.28 0 00-.217.125l-4.263 6.76a.252.252 0 01-.22.126.257.257 0 01-.22-.126zM72.904.471l-6.757 15.552a.248.248 0 00.11.323c.038.02.08.03.122.03h2.747a.263.263 0 00.24-.154l4.949-11.9a.251.251 0 01.239-.165.256.256 0 01.239.166L79.75 16.2a.252.252 0 00.231.155h2.748a.257.257 0 00.213-.115.25.25 0 00.018-.239L76.204.471a.259.259 0 00-.24-.154h-2.799a.279.279 0 00-.261.154zM30.08 16.377a.256.256 0 00.224-.128.248.248 0 00-.007-.255L26.281 9.86v-.052h.06a4.157 4.157 0 002.485-1.562 4.054 4.054 0 00.807-2.797c-.15-3.976-3.569-5.11-5.57-5.125h-6.89a.263.263 0 00-.18.078.256.256 0 00-.074.18v15.544c0 .067.027.13.074.178a.256.256 0 00.18.073h2.672a.263.263 0 00.183-.073.256.256 0 00.079-.177V3.107h3.195a3.688 3.688 0 012.292.641 2.24 2.24 0 01.873 1.672 1.782 1.782 0 01-.477 1.31 3.403 3.403 0 01-2.613.862h-1.815a.264.264 0 00-.221.134.255.255 0 00.005.256l5.375 8.218a.438.438 0 00.359.192l3-.015zm72.119 0h3.069a.263.263 0 00.233-.128.254.254 0 00-.002-.262l-3.553-6.01a5.042 5.042 0 001.694-1.472c.642-.85.983-1.885.971-2.945a5.099 5.099 0 00-.689-2.636 5.193 5.193 0 00-1.954-1.922 5.405 5.405 0 00-2.703-.693h-6.719a.27.27 0 00-.185.08.263.263 0 00-.076.185v15.538a.255.255 0 00.161.238c.032.013.066.02.1.02h2.576a.27.27 0 00.187-.076.264.264 0 00.082-.182v-5.508h3.3l3.262 5.64a.261.261 0 00.246.133zm-.746-10.81a2.022 2.022 0 01-.545 1.473 1.782 1.782 0 01-1.374.545h-4.12V3.343h3.635a2.467 2.467 0 011.739.633 2.04 2.04 0 01.657 1.591h.008zm40.583-5.25h-2.598a.26.26 0 00-.261.257v15.523a.26.26 0 00.261.258h2.598a.26.26 0 00.262-.258V.574a.26.26 0 00-.262-.257zm-31.064 13.269V9.617h7.323a.26.26 0 00.262-.25v-2.21a.254.254 0 00-.254-.25h-7.331V3.05h8.518a.263.263 0 00.182-.073.255.255 0 00.079-.178V.59a.257.257 0 00-.254-.25h-11.4a.261.261 0 00-.254.25v15.464a.246.246 0 00.075.176.258.258 0 00.179.073h11.393a.263.263 0 00.182-.072.255.255 0 00.079-.177v-2.21a.251.251 0 00-.254-.25h-8.525v-.007zm37.522 0V9.617h7.324a.254.254 0 00.254-.25v-2.21a.254.254 0 00-.254-.25h-7.324V3.05h8.518a.256.256 0 00.18-.074.247.247 0 00.074-.177V.59a.257.257 0 00-.254-.25H145.62a.257.257 0 00-.254.25v15.464a.25.25 0 00.254.25h11.392a.256.256 0 00.18-.073.247.247 0 00.074-.177v-2.21a.247.247 0 00-.074-.176.257.257 0 00-.18-.074h-8.518v-.007zM136.833.567a.244.244 0 00-.224-.243h-2.987a.24.24 0 00-.231.177l-3.867 11.826L125.619.493a.251.251 0 00-.091-.125.264.264 0 00-.148-.051h-3.061a.256.256 0 00-.179.073.247.247 0 00-.074.177v.066l5.718 15.567a.277.277 0 00.239.155h2.845a.258.258 0 00.239-.162L136.818.655a.331.331 0 00.015-.088zm43.166 0a.245.245 0 00-.224-.243h-2.732a.238.238 0 00-.232.177l-2.672 11.082-2.725-11.09a.27.27 0 00-.247-.177h-2.896a.267.267 0 00-.06.09l-2.673 11.081-2.74-10.994a.245.245 0 00-.09-.126.257.257 0 00-.149-.05h-2.717a.25.25 0 00-.254.25v.066l4.233 15.567a.252.252 0 00.232.155h2.851a.252.252 0 00.239-.162l2.651-9.735 2.665 9.742a.278.278 0 00.239.155h2.844a.253.253 0 00.239-.162L179.984.655a.168.168 0 00.015-.088z" /></g><defs></defs></symbol><clipPath id="logo-crema-review_a"><path fill="#fff" d="M0 0h180v17H0z" /></clipPath><symbol viewBox="0 0 24 24" id="naver"><path d="M15.342 2.25v9.708L8.691 2.25H1.5v19.24h7.158v-9.707l6.651 9.708H22.5V2.25h-7.158z" /></symbol><symbol fill="none" viewBox="0 0 16 16" id="naver-shaded"><g filter="url(#naver-shaded_filter0_d)"><path fill="#fff" d="M10.264 1.778v6.575L5.759 1.778H.889v13.03h4.847V8.235l4.505 6.575h4.87V1.778h-4.847z" /></g><defs><filter id="naver-shaded_filter0_d" width="18.222" height="17.031" x="-.111" y=".778" color-interpolation-filters="sRGB" filterUnits="userSpaceOnUse"><feFlood flood-opacity="0" result="BackgroundImageFix"></feFlood><feColorMatrix in="SourceAlpha" values="0 0 0 0 0 0 0 0 0 0 0 0 0 0 0 0 0 0 127 0"></feColorMatrix><feOffset dx="1" dy="1"></feOffset><feGaussianBlur stdDeviation="1"></feGaussianBlur><feColorMatrix values="0 0 0 0 0 0 0 0 0 0 0 0 0 0 0 0 0 0 0.4 0"></feColorMatrix><feBlend in2="BackgroundImageFix" result="effect1_dropShadow"></feBlend><feBlend in="SourceGraphic" in2="effect1_dropShadow" result="shape"></feBlend></filter></defs></symbol><symbol fill="none" viewBox="0 0 18 18" id="naver-small"><rect x=".5" y=".5" width="17" height="17" rx="1.5" stroke="#fff" /><path fill-rule="evenodd" clip-rule="evenodd" d="M10.65 4.5v4.817L7.368 4.5H4.5v9h2.85V8.683l3.282 4.817H13.5v-9h-2.85z" fill="#fff" /></symbol><symbol fill="none" viewBox="0 0 16 16" id="report-button"><path d="M12.3 6.8v3.927a.373.373 0 01-.373.373H4.073a.373.373 0 01-.373-.373V6.8a4.3 4.3 0 118.6 0zM2.5 13.5h11" /></symbol><symbol fill="none" viewBox="0 0 24 24" id="spam-reported"><path d="M22 12s-3 6-10 6-10-6-10-6 3-6 10-6 10 6 10 6z" stroke="#BCC2CC" stroke-linecap="square" /><path d="M12 16a4 4 0 100-8 4 4 0 000 8zM3 21L20 4" stroke="#BCC2CC" stroke-linecap="square" /></symbol><symbol fill="none" viewBox="0 0 36 36" id="vimeo-large"><g clip-path="url(#vimeo-large_clip0_116_3782)"><path d="M0 0v36h36V0H0zm30.686 15.781c-2.85 6.086-9.727 14.373-14.074 14.373-4.284 0-4.903-9.137-7.243-15.218-1.152-2.991-1.895-2.305-4.053-.795L4 12.444c3.146-2.767 6.298-5.982 8.234-6.16 2.178-.21 3.52 1.279 4.023 4.47.663 4.192 1.589 10.699 3.206 10.699 1.26 0 4.364-5.163 4.524-7.007.283-2.702-1.986-2.784-3.957-1.941 3.117-10.213 16.09-8.332 10.656 3.276z" fill="#1AB7EA" /></g><defs></defs></symbol><clipPath id="vimeo-large_clip0_116_3782"><path fill="#fff" d="M0 0h36v36H0z" /></clipPath><symbol viewBox="0 0 36 36" fill="none" id="vimeo-medium"><g clip-path="url(#vimeo-medium_clip0_116_3782)"><path d="M0 0v36h36V0H0zm30.686 15.781c-2.85 6.086-9.727 14.373-14.074 14.373-4.284 0-4.903-9.137-7.243-15.218-1.152-2.991-1.895-2.305-4.053-.795L4 12.444c3.146-2.767 6.298-5.982 8.234-6.16 2.178-.21 3.52 1.279 4.023 4.47.663 4.192 1.589 10.699 3.206 10.699 1.26 0 4.364-5.163 4.524-7.007.283-2.702-1.986-2.784-3.957-1.941 3.117-10.213 16.09-8.332 10.656 3.276z" fill="#1AB7EA" /></g><defs></defs></symbol><clipPath id="vimeo-medium_clip0_116_3782"><path fill="#fff" d="M0 0h36v36H0z" /></clipPath><symbol fill="none" viewBox="0 0 16 16" id="vimeo-shaded"><g filter="url(#vimeo-shaded_filter0_d)"><path fill="#fff" d="M13.664.893c-2.218-.081-3.717 1.19-4.508 3.795a2.876 2.876 0 011.185-.263c.813 0 1.172.465 1.076 1.388-.048.56-.405 1.373-1.075 2.443-.672 1.07-1.175 1.606-1.51 1.606-1.014 0-1.624-4.856-1.83-6.182-.289-1.843-1.055-2.705-2.3-2.585C3.561 1.204 1.567 3.261 0 4.655l.753.982c.716-.508 1.134-.763 1.254-.763 1.247 0 1.85 4.245 2.82 7.402.65 1.742 1.429 2.613 2.368 2.613 1.51 0 3.348-1.43 5.527-4.29 2.103-2.737 3.192-4.895 3.262-6.47l.009-.006c.09-2.11-.68-3.19-2.329-3.23z" /></g><defs><filter id="vimeo-shaded_filter0_d" width="20" height="18" x="-1" y="-.111" color-interpolation-filters="sRGB" filterUnits="userSpaceOnUse"><feFlood flood-opacity="0" result="BackgroundImageFix"></feFlood><feColorMatrix in="SourceAlpha" values="0 0 0 0 0 0 0 0 0 0 0 0 0 0 0 0 0 0 127 0"></feColorMatrix><feOffset dx="1" dy="1"></feOffset><feGaussianBlur stdDeviation="1"></feGaussianBlur><feColorMatrix values="0 0 0 0 0 0 0 0 0 0 0 0 0 0 0 0 0 0 0.4 0"></feColorMatrix><feBlend in2="BackgroundImageFix" result="effect1_dropShadow"></feBlend><feBlend in="SourceGraphic" in2="effect1_dropShadow" result="shape"></feBlend></filter></defs></symbol><symbol fill="none" viewBox="0 0 18 18" id="vimeo-small"><path d="M17.155 7.672c-1.831 3.913-6.253 9.24-9.047 9.24-2.754 0-3.152-5.874-4.657-9.783-.74-1.923-1.218-1.482-2.605-.511L0 5.527c2.023-1.779 4.049-3.845 5.293-3.96 1.4-.135 2.264.822 2.587 2.873.426 2.696 1.021 6.878 2.06 6.878.81 0 2.806-3.318 2.909-4.504.182-1.737-1.277-1.79-2.544-1.248C12.309-.999 20.648.21 17.155 7.672z" fill="#fff" /></symbol><symbol viewBox="0 0 24 24" id="youtube"><path d="M23.506 6.63a3.006 3.006 0 00-2.116-2.116C19.512 4 12 4 12 4s-7.512 0-9.39.494A3.068 3.068 0 00.493 6.63C0 8.507 0 12.402 0 12.402s0 3.914.494 5.772A3.006 3.006 0 002.61 20.29c1.897.514 9.39.514 9.39.514s7.512 0 9.39-.494a3.008 3.008 0 002.116-2.116C24 16.316 24 12.422 24 12.422s.02-3.915-.494-5.793zM9.608 16V8.804l6.247 3.598L9.608 16z" /></symbol><symbol fill="none" viewBox="0 0 36 36" id="youtube-large"><g clip-path="url(#youtube-large_clip0_116_3784)"><path fill-rule="evenodd" clip-rule="evenodd" d="M32.065 6.052a4.528 4.528 0 013.182 3.21C36 12.094 36 18 36 18s0 5.908-.753 8.738a4.528 4.528 0 01-3.182 3.21c-2.807.758-14.065.758-14.065.758s-11.256 0-14.065-.758a4.528 4.528 0 01-3.182-3.21C0 23.906 0 18 0 18s0-5.906.753-8.738a4.528 4.528 0 013.182-3.21C6.742 5.294 18 5.294 18 5.294s11.258 0 14.065.758zM24.233 18.07l-9.41-5.363v10.726l9.41-5.363z" fill="red" /></g><defs></defs></symbol><clipPath id="youtube-large_clip0_116_3784"><path fill="#fff" d="M0 0h36v36H0z" /></clipPath><symbol viewBox="0 0 36 36" fill="none" id="youtube-medium"><g clip-path="url(#youtube-medium_clip0_116_3784)"><path fill-rule="evenodd" clip-rule="evenodd" d="M32.065 6.052a4.528 4.528 0 013.182 3.21C36 12.094 36 18 36 18s0 5.908-.753 8.738a4.528 4.528 0 01-3.182 3.21c-2.807.758-14.065.758-14.065.758s-11.256 0-14.065-.758a4.528 4.528 0 01-3.182-3.21C0 23.906 0 18 0 18s0-5.906.753-8.738a4.528 4.528 0 013.182-3.21C6.742 5.294 18 5.294 18 5.294s11.258 0 14.065.758zM24.233 18.07l-9.41-5.363v10.726l9.41-5.363z" fill="red" /></g><defs></defs></symbol><clipPath id="youtube-medium_clip0_116_3784"><path fill="#fff" d="M0 0h36v36H0z" /></clipPath><symbol fill="none" viewBox="0 0 16 16" id="youtube-shaded"><g filter="url(#youtube-shaded_filter0_d)"><path fill="#fff" d="M15.67 4.42a2.002 2.002 0 00-1.41-1.41C13.008 2.666 8 2.666 8 2.666s-5.008 0-6.26.33A2.04 2.04 0 00.33 4.42C0 5.672 0 8.268 0 8.268s0 2.61.33 3.848a2 2 0 001.41 1.41c1.265.343 6.26.343 6.26.343s5.008 0 6.26-.33a2 2 0 001.41-1.41c.33-1.252.33-3.848.33-3.848s.013-2.61-.33-3.861zm-9.265 6.246V5.87l4.165 2.399-4.165 2.398z" /></g><defs><filter id="youtube-shaded_filter0_d" width="20" height="15.203" x="-1" y="1.667" color-interpolation-filters="sRGB" filterUnits="userSpaceOnUse"><feFlood flood-opacity="0" result="BackgroundImageFix"></feFlood><feColorMatrix in="SourceAlpha" values="0 0 0 0 0 0 0 0 0 0 0 0 0 0 0 0 0 0 127 0"></feColorMatrix><feOffset dx="1" dy="1"></feOffset><feGaussianBlur stdDeviation="1"></feGaussianBlur><feColorMatrix values="0 0 0 0 0 0 0 0 0 0 0 0 0 0 0 0 0 0 0.4 0"></feColorMatrix><feBlend in2="BackgroundImageFix" result="effect1_dropShadow"></feBlend><feBlend in="SourceGraphic" in2="effect1_dropShadow" result="shape"></feBlend></filter></defs></symbol><symbol fill="none" viewBox="0 0 18 18" id="youtube-small"><path fill-rule="evenodd" clip-rule="evenodd" d="M15.642 3.358a2.138 2.138 0 011.503 1.516C17.5 6.21 17.5 9 17.5 9s0 2.79-.355 4.127a2.138 2.138 0 01-1.503 1.515C14.316 15 9 15 9 15s-5.315 0-6.642-.358a2.138 2.138 0 01-1.503-1.515C.5 11.788.5 9 .5 9s0-2.789.355-4.126a2.138 2.138 0 011.503-1.516C3.684 3 9 3 9 3s5.316 0 6.642.358zm-3.699 5.675L7.5 6.5v5.065l4.443-2.532z" fill="#fff" /></symbol></defs></svg>