<svg id="a" xmlns="http://www.w3.org/2000/svg" width="59" height="44" viewBox="0 0 59 44"><path id="d" d="M3.8525,22.3242c-1.4004,0-2.2617-1.0605-2.2617-2.3906,0-1.3418,.8613-2.3965,2.2617-2.3965,1.248,0,2.0566,.8203,2.2324,1.9277h.9375v-2.5195h.9375v6.8672h-.9375v-3.5215h-.9258c-.1348,1.166-.9551,2.0332-2.2441,2.0332Zm0-.8965c.8145,0,1.3008-.6562,1.3008-1.4941s-.4863-1.5-1.3008-1.5c-.8086,0-1.2891,.6621-1.2891,1.5s.4805,1.4941,1.2891,1.4941Zm6.2988,4.957H3.2256v-3.0996h1.0254v2.2852h5.9004v.8145Zm-1.2246-2.3379v-7.3008h.9551v7.3008h-.9551Zm3.4746-5.5723v1.9453h3.1055v.8145h-3.1055v2.168c1.2773,.0234,3.0645-.0645,4.125-.2695l.1055,.7969c-1.5527,.2871-3.2812,.3164-5.2324,.3164v-6.5801h4.5059v.8086h-3.5039Zm5.6895,8.1973v-5.3672h-1.8984v-.8672h1.8984v-3.6914h1.0137v9.9258h-1.0137Zm3.6855-7.9863v1.8223h2.2793v.8203h-2.2793v2.0391c1.1836,0,2.2266-.0879,3.0352-.2461l.0879,.791c-.9082,.1816-2.4141,.2754-4.084,.2695v-6.2988h3.6445v.8027h-2.6836Zm4.1367,7.4883v-4.8457h-1.3359v-.8496h1.3359v-3.5156h.9609v9.2109h-.9609Zm1.9512,.4922v-9.9141h.9727v9.9141h-.9727Zm4.9746-4.3359c-1.4766,0-2.6191-1.002-2.6191-2.3965,0-1.3887,1.1426-2.3906,2.6191-2.3906,1.4824,0,2.6309,1.002,2.6309,2.3906,0,1.3945-1.1484,2.3965-2.6309,2.3965Zm0-.8613c.9434,0,1.6406-.6328,1.6406-1.5352s-.6973-1.541-1.6406-1.541c-.9375,0-1.6289,.6387-1.6289,1.541s.6914,1.5352,1.6289,1.5352Zm5.4844,4.0781v.8145h-6.7734v-3.1172h1.0195v2.3027h5.7539Zm-1.2832-1.582v-7.2188h1.0254v7.2188h-1.0254Zm2.8066-1.7402v-4.6348h4.5v4.6348h-4.5Zm3.498-3.8203h-2.4961v3.0117h2.4961v-3.0117Zm4.4121,7.1426v.8145h-6.7207v-3.041h1.0312v2.2266h5.6895Zm-1.2246-1.5879v-3.6445h-1.752v-.8203h1.752v-2.7539h1.0195v7.2188h-1.0195Zm2.3555,1.377v-.8145h8.9531v.8145h-8.9531Zm2.1973-6.8789v1.3359h5.3613v.8086h-5.3613v1.3887h5.7188v.8145h-6.7324v-5.1562h6.627v.8086h-5.6133Z"></path></svg>