<svg width="400" height="400" viewBox="0 0 400 400" fill="none" xmlns="http://www.w3.org/2000/svg">
<path d="M38.5002 26H20.5002C19.5002 26 18.7002 26.8 18.7002 27.8V43.1C18.7002 44.1 19.5002 44.9 20.5002 44.9H38.5002C39.5002 44.9 40.3002 44.1 40.3002 43.1V27.8C40.3002 26.8 39.5002 26 38.5002 26Z" fill="white"/>
<path d="M38.5002 26H20.5002C19.5002 26 18.7002 26.8 18.7002 27.8V43.1C18.7002 44.1 19.5002 44.9 20.5002 44.9H38.5002C39.5002 44.9 40.3002 44.1 40.3002 43.1V27.8C40.3002 26.8 39.5002 26 38.5002 26Z" stroke="#181718" stroke-width="1.5" stroke-miterlimit="100"/>
<path d="M27.3004 31.3008C26.8004 30.8008 25.9004 30.8008 25.4004 31.3008C24.9004 31.8008 24.9004 32.7008 25.4004 33.2008C25.9004 33.7008 26.8004 33.7008 27.3004 33.2008C27.8004 32.7008 27.8004 31.9008 27.3004 31.3008Z" fill="white"/>
<path d="M27.3004 31.3008C26.8004 30.8008 25.9004 30.8008 25.4004 31.3008C24.9004 31.8008 24.9004 32.7008 25.4004 33.2008C25.9004 33.7008 26.8004 33.7008 27.3004 33.2008C27.8004 32.7008 27.8004 31.9008 27.3004 31.3008Z" stroke="#DF0000" stroke-width="1.5" stroke-miterlimit="100"/>
<path d="M32.9996 37.1006C32.4996 36.6006 31.5996 36.6006 31.0996 37.1006C30.5996 37.6006 30.5996 38.5006 31.0996 39.0006C31.5996 39.5006 32.4996 39.5006 32.9996 39.0006C33.4996 38.4006 33.4996 37.6006 32.9996 37.1006Z" fill="white"/>
<path d="M32.9996 37.1006C32.4996 36.6006 31.5996 36.6006 31.0996 37.1006C30.5996 37.6006 30.5996 38.5006 31.0996 39.0006C31.5996 39.5006 32.4996 39.5006 32.9996 39.0006C33.4996 38.4006 33.4996 37.6006 32.9996 37.1006Z" stroke="#DF0000" stroke-width="1.5" stroke-miterlimit="100"/>
<path d="M47.4998 26H42.0998C41.0998 26 40.2998 26.8 40.2998 27.8V43.1C40.2998 44.1 41.0998 44.9 42.0998 44.9H47.4998C48.4998 44.9 49.2998 44.1 49.2998 43.1V27.8C49.2998 26.8 48.4998 26 47.4998 26Z" fill="white"/>
<path d="M47.4998 26H42.0998C41.0998 26 40.2998 26.8 40.2998 27.8V43.1C40.2998 44.1 41.0998 44.9 42.0998 44.9H47.4998C48.4998 44.9 49.2998 44.1 49.2998 43.1V27.8C49.2998 26.8 48.4998 26 47.4998 26Z" stroke="#181718" stroke-width="1.5" stroke-miterlimit="100"/>
<path d="M33.0996 31.4004L25.0996 39.4004" stroke="#DF0000" stroke-width="1.5" stroke-miterlimit="100" stroke-linecap="round"/>
<path d="M38.5002 222.6H20.5002C19.5002 222.6 18.7002 223.4 18.7002 224.4V239.7C18.7002 240.7 19.5002 241.5 20.5002 241.5H38.5002C39.5002 241.5 40.3002 240.7 40.3002 239.7V224.4C40.3002 223.4 39.5002 222.6 38.5002 222.6Z" fill="white"/>
<path d="M38.5002 222.6H20.5002C19.5002 222.6 18.7002 223.4 18.7002 224.4V239.7C18.7002 240.7 19.5002 241.5 20.5002 241.5H38.5002C39.5002 241.5 40.3002 240.7 40.3002 239.7V224.4C40.3002 223.4 39.5002 222.6 38.5002 222.6Z" stroke="#858585" stroke-width="1.5" stroke-miterlimit="100"/>
<path d="M27.3004 227.9C26.8004 227.4 25.9004 227.4 25.4004 227.9C24.9004 228.4 24.9004 229.3 25.4004 229.8C25.9004 230.3 26.8004 230.3 27.3004 229.8C27.8004 229.3 27.8004 228.5 27.3004 227.9Z" fill="white"/>
<path d="M27.3004 227.9C26.8004 227.4 25.9004 227.4 25.4004 227.9C24.9004 228.4 24.9004 229.3 25.4004 229.8C25.9004 230.3 26.8004 230.3 27.3004 229.8C27.8004 229.3 27.8004 228.5 27.3004 227.9Z" stroke="#858585" stroke-width="1.5" stroke-miterlimit="100"/>
<path d="M32.9996 233.7C32.4996 233.2 31.5996 233.2 31.0996 233.7C30.5996 234.2 30.5996 235.1 31.0996 235.6C31.5996 236.1 32.4996 236.1 32.9996 235.6C33.4996 235 33.4996 234.2 32.9996 233.7Z" fill="white"/>
<path d="M32.9996 233.7C32.4996 233.2 31.5996 233.2 31.0996 233.7C30.5996 234.2 30.5996 235.1 31.0996 235.6C31.5996 236.1 32.4996 236.1 32.9996 235.6C33.4996 235 33.4996 234.2 32.9996 233.7Z" stroke="#858585" stroke-width="1.5" stroke-miterlimit="100"/>
<path d="M47.4998 222.6H42.0998C41.0998 222.6 40.2998 223.4 40.2998 224.4V239.7C40.2998 240.7 41.0998 241.5 42.0998 241.5H47.4998C48.4998 241.5 49.2998 240.7 49.2998 239.7V224.4C49.2998 223.4 48.4998 222.6 47.4998 222.6Z" fill="white"/>
<path d="M47.4998 222.6H42.0998C41.0998 222.6 40.2998 223.4 40.2998 224.4V239.7C40.2998 240.7 41.0998 241.5 42.0998 241.5H47.4998C48.4998 241.5 49.2998 240.7 49.2998 239.7V224.4C49.2998 223.4 48.4998 222.6 47.4998 222.6Z" stroke="#858585" stroke-width="1.5" stroke-miterlimit="100"/>
<path d="M33.0996 228L25.0996 236" stroke="#858585" stroke-width="1.5" stroke-miterlimit="100" stroke-linecap="round"/>
<path d="M106.8 23.5005L101.9 26.7005C101.7 26.9005 101.5 27.1005 101.4 27.3005C101.3 27.2005 101.2 27.1005 101 27.0005L95.5998 23.6005C94.3998 22.8005 92.7998 23.7005 92.7998 25.1005V32.0005C92.7998 33.4005 94.3998 34.3005 95.5998 33.5005L101 30.0005C101.3 29.8005 101.4 29.6005 101.6 29.4005C101.7 29.5005 101.8 29.6005 102 29.7005L106.9 32.9005C108.1 33.7005 109.7 32.8005 109.7 31.4005V25.0005C109.6 23.6005 108 22.7005 106.8 23.5005Z" fill="white"/>
<path d="M106.8 23.5005L101.9 26.7005C101.7 26.9005 101.5 27.1005 101.4 27.3005C101.3 27.2005 101.2 27.1005 101 27.0005L95.5998 23.6005C94.3998 22.8005 92.7998 23.7005 92.7998 25.1005V32.0005C92.7998 33.4005 94.3998 34.3005 95.5998 33.5005L101 30.0005C101.3 29.8005 101.4 29.6005 101.6 29.4005C101.7 29.5005 101.8 29.6005 102 29.7005L106.9 32.9005C108.1 33.7005 109.7 32.8005 109.7 31.4005V25.0005C109.6 23.6005 108 22.7005 106.8 23.5005Z" stroke="#DF0000" stroke-width="1.5" stroke-miterlimit="100"/>
<path fill-rule="evenodd" clip-rule="evenodd" d="M113.8 38.5004C113.8 39.7004 114.8 40.8004 116 40.9004V45.9004C116 46.9004 115.2 47.7004 114.2 47.7004H88.3C87.3 47.7004 86.5 46.9004 86.5 45.9004V40.9004C87.8 40.9004 88.9 39.8004 88.9 38.5004C88.9 37.2004 87.8 36.1004 86.5 36.1004V30.2004C86.5 29.2004 87.3 28.4004 88.3 28.4004H114.1C115.1 28.4004 115.9 29.2004 115.9 30.2004V36.1004C114.7 36.2004 113.8 37.2004 113.8 38.5004Z" fill="white" stroke="#181718" stroke-width="1.5" stroke-miterlimit="100"/>
<path d="M105.301 28.4004H98.1006V47.7004H105.301V28.4004Z" fill="white" stroke="#181718" stroke-width="1.5" stroke-miterlimit="100"/>
<path d="M106.8 220.1L101.9 223.3C101.7 223.5 101.5 223.7 101.4 223.9C101.3 223.8 101.2 223.7 101 223.6L95.5998 220.2C94.3998 219.4 92.7998 220.3 92.7998 221.7V228.6C92.7998 230 94.3998 230.9 95.5998 230.1L101 226.6C101.3 226.4 101.4 226.2 101.6 226C101.7 226.1 101.8 226.2 102 226.3L106.9 229.5C108.1 230.3 109.7 229.4 109.7 228V221.6C109.6 220.2 108 219.3 106.8 220.1Z" fill="white"/>
<path d="M106.8 220.1L101.9 223.3C101.7 223.5 101.5 223.7 101.4 223.9C101.3 223.8 101.2 223.7 101 223.6L95.5998 220.2C94.3998 219.4 92.7998 220.3 92.7998 221.7V228.6C92.7998 230 94.3998 230.9 95.5998 230.1L101 226.6C101.3 226.4 101.4 226.2 101.6 226C101.7 226.1 101.8 226.2 102 226.3L106.9 229.5C108.1 230.3 109.7 229.4 109.7 228V221.6C109.6 220.2 108 219.3 106.8 220.1Z" stroke="#858585" stroke-width="1.5" stroke-miterlimit="100"/>
<path fill-rule="evenodd" clip-rule="evenodd" d="M113.8 235.1C113.8 236.3 114.8 237.4 116 237.5V242.5C116 243.5 115.2 244.3 114.2 244.3H88.3C87.3 244.3 86.5 243.5 86.5 242.5V237.5C87.8 237.5 88.9 236.4 88.9 235.1C88.9 233.8 87.8 232.7 86.5 232.7V226.8C86.5 225.8 87.3 225 88.3 225H114.1C115.1 225 115.9 225.8 115.9 226.8V232.7C114.7 232.8 113.8 233.8 113.8 235.1Z" fill="white" stroke="#858585" stroke-width="1.5" stroke-miterlimit="100"/>
<path d="M105.301 225H98.1006V244.3H105.301V225Z" fill="white" stroke="#858585" stroke-width="1.5" stroke-miterlimit="100"/>
<path d="M164.9 21.8008L159.5 30.8008" stroke="#181718" stroke-width="1.5" stroke-miterlimit="100" stroke-linecap="round"/>
<path d="M172.1 21.8008L177.5 30.8008" stroke="#181718" stroke-width="1.5" stroke-miterlimit="100" stroke-linecap="round"/>
<path d="M178.7 33H158.2C157.2 33 156.6 33.9 156.7 34.9L158.7 47.9C158.8 48.6 159.5 49.1 160.3 49.1H176.7C177.5 49.1 178.2 48.6 178.3 47.9L180.3 34.9C180.4 33.9 179.7 33 178.7 33Z" fill="white"/>
<path d="M178.7 33H158.2C157.2 33 156.6 33.9 156.7 34.9L158.7 47.9C158.8 48.6 159.5 49.1 160.3 49.1H176.7C177.5 49.1 178.2 48.6 178.3 47.9L180.3 34.9C180.4 33.9 179.7 33 178.7 33Z" stroke="#181718" stroke-width="1.5" stroke-miterlimit="100"/>
<path d="M180.5 28.8008H156.3C155.3 28.8008 154.5 29.6008 154.5 30.6008V32.5008C154.5 33.5008 155.3 34.3008 156.3 34.3008H180.5C181.5 34.3008 182.3 33.5008 182.3 32.5008V30.6008C182.3 29.7008 181.5 28.8008 180.5 28.8008Z" fill="white"/>
<path d="M180.5 28.8008H156.3C155.3 28.8008 154.5 29.6008 154.5 30.6008V32.5008C154.5 33.5008 155.3 34.3008 156.3 34.3008H180.5C181.5 34.3008 182.3 33.5008 182.3 32.5008V30.6008C182.3 29.7008 181.5 28.8008 180.5 28.8008Z" stroke="#181718" stroke-width="1.5" stroke-miterlimit="100"/>
<path d="M168.3 38V44.3" stroke="#DF0000" stroke-width="1.5" stroke-miterlimit="100" stroke-linecap="round"/>
<path d="M163.5 38L164.4 44.3" stroke="#DF0000" stroke-width="1.5" stroke-miterlimit="100" stroke-linecap="round"/>
<path d="M173.4 38L172.5 44.3" stroke="#DF0000" stroke-width="1.5" stroke-miterlimit="100" stroke-linecap="round"/>
<path d="M164.9 218.4L159.5 227.4" stroke="#858585" stroke-width="1.5" stroke-miterlimit="100" stroke-linecap="round"/>
<path d="M172.1 218.4L177.5 227.4" stroke="#858585" stroke-width="1.5" stroke-miterlimit="100" stroke-linecap="round"/>
<path d="M178.7 229.6H158.2C157.2 229.6 156.6 230.5 156.7 231.5L158.7 244.5C158.8 245.2 159.5 245.7 160.3 245.7H176.7C177.5 245.7 178.2 245.2 178.3 244.5L180.3 231.5C180.4 230.5 179.7 229.6 178.7 229.6Z" fill="white"/>
<path d="M178.7 229.6H158.2C157.2 229.6 156.6 230.5 156.7 231.5L158.7 244.5C158.8 245.2 159.5 245.7 160.3 245.7H176.7C177.5 245.7 178.2 245.2 178.3 244.5L180.3 231.5C180.4 230.5 179.7 229.6 178.7 229.6Z" stroke="#858585" stroke-width="1.5" stroke-miterlimit="100"/>
<path d="M180.5 225.4H156.3C155.3 225.4 154.5 226.2 154.5 227.2V229.1C154.5 230.1 155.3 230.9 156.3 230.9H180.5C181.5 230.9 182.3 230.1 182.3 229.1V227.2C182.3 226.3 181.5 225.4 180.5 225.4Z" fill="white"/>
<path d="M180.5 225.4H156.3C155.3 225.4 154.5 226.2 154.5 227.2V229.1C154.5 230.1 155.3 230.9 156.3 230.9H180.5C181.5 230.9 182.3 230.1 182.3 229.1V227.2C182.3 226.3 181.5 225.4 180.5 225.4Z" stroke="#858585" stroke-width="1.5" stroke-miterlimit="100"/>
<path d="M168.3 234.6V240.9" stroke="#858585" stroke-width="1.5" stroke-miterlimit="100" stroke-linecap="round"/>
<path d="M163.5 234.6L164.4 240.9" stroke="#858585" stroke-width="1.5" stroke-miterlimit="100" stroke-linecap="round"/>
<path d="M173.4 234.6L172.5 240.9" stroke="#858585" stroke-width="1.5" stroke-miterlimit="100" stroke-linecap="round"/>
<path d="M246.599 32.9004C246.399 32.6004 246.199 32.3004 245.899 32.1004L237.499 25.2004C236.399 24.3004 234.799 24.3004 233.699 25.2004L225.299 32.1004C224.499 32.7004 224.199 33.6004 224.199 34.4004V34.5004V46.2004C224.199 47.7004 225.499 49.0004 226.999 49.0004H244.399C245.899 49.0004 247.199 47.7004 247.199 46.2004V34.5004C247.199 33.9004 246.999 33.4004 246.599 32.9004Z" fill="white"/>
<path d="M246.599 32.9004C246.399 32.6004 246.199 32.3004 245.899 32.1004L237.499 25.2004C236.399 24.3004 234.799 24.3004 233.699 25.2004L225.299 32.1004C224.499 32.7004 224.199 33.6004 224.199 34.4004V34.5004V46.2004C224.199 47.7004 225.499 49.0004 226.999 49.0004H244.399C245.899 49.0004 247.199 47.7004 247.199 46.2004V34.5004C247.199 33.9004 246.999 33.4004 246.599 32.9004Z" stroke="#181718" stroke-width="1.5" stroke-miterlimit="100"/>
<path d="M248.699 30.8004L236.899 22.2004C236.799 22.1004 236.699 22.1004 236.599 22.0004H236.499C236.399 22.0004 236.299 21.9004 236.199 21.9004H236.099C235.999 21.9004 235.999 21.9004 235.899 21.9004C235.799 21.9004 235.799 21.9004 235.699 21.9004C235.599 21.9004 235.599 21.9004 235.499 21.9004C235.399 21.9004 235.399 21.9004 235.299 21.9004H235.199C235.099 21.9004 234.999 21.9004 234.899 22.0004H234.799C234.699 22.0004 234.599 22.1004 234.499 22.2004L222.699 30.8004C221.799 31.5004 221.499 32.8004 222.199 33.7004L222.699 34.4004C223.399 35.3004 224.699 35.6004 225.599 34.9004L235.699 27.6004L245.799 34.9004C246.699 35.6004 247.999 35.3004 248.699 34.4004L249.199 33.7004C249.799 32.7004 249.599 31.5004 248.699 30.8004Z" fill="white" stroke="#181718" stroke-width="1.5" stroke-miterlimit="100"/>
<path d="M239.835 43.2158L239.83 43.2285L239.825 43.2422C239.649 43.7706 239.428 44.0417 239.216 44.1885C239.003 44.336 238.739 44.4003 238.4 44.4004C238.131 44.4004 237.883 44.3208 237.685 44.2295L237.777 44.0752C237.923 44.1387 238.108 44.2002 238.3 44.2002C238.627 44.2002 238.927 44.1307 239.179 43.8789C239.375 43.6826 239.514 43.3911 239.647 43.124L239.656 43.1055L239.664 43.0859L239.864 42.5859L239.946 42.3818L239.851 42.1836L237.695 37.7002H237.979L239.546 41.1084L240.045 42.1943L240.468 41.0771L241.754 37.6748L242.041 37.6543L239.835 43.2158ZM234.4 37.5C234.781 37.5001 235.095 37.6315 235.314 37.8594C235.534 38.0871 235.7 38.4543 235.7 39V41.7998H235.4V39.2998C235.4 38.8892 235.313 38.4849 235.065 38.1748C234.802 37.8459 234.42 37.7002 234 37.7002C233.83 37.7002 233.677 37.7292 233.539 37.7744C233.713 37.6356 233.986 37.5 234.4 37.5ZM231.2 37.5C231.661 37.5 231.945 37.6683 232.115 37.8213C232.204 37.9009 232.265 37.9806 232.303 38.0371C232.321 38.065 232.334 38.0863 232.341 38.0986C232.342 38.1 232.342 38.1014 232.343 38.1025V38.1035L232.576 38.6289C232.573 38.6351 232.57 38.641 232.567 38.6465C232.56 38.6609 232.554 38.6731 232.55 38.6826C232.548 38.6874 232.545 38.6919 232.544 38.6953L232.541 38.7012V38.7031H232.54L232.5 38.7979V41.7998H232.2V39.2998C232.2 38.8892 232.113 38.4849 231.865 38.1748C231.602 37.846 231.22 37.7002 230.8 37.7002C230.704 37.7002 230.615 37.711 230.529 37.7266C230.705 37.599 230.927 37.5 231.2 37.5ZM229.2 37.7002V39.8291L229.3 39.6494V41.7998H229V37.7002H229.2ZM230.137 38.1436V38.1445L230.135 38.1465L230.136 38.1445V38.1426L230.137 38.1436Z" fill="#181718" stroke="#DF0000"/>
<path d="M246.599 229.5C246.399 229.2 246.199 228.9 245.899 228.7L237.499 221.8C236.399 220.9 234.799 220.9 233.699 221.8L225.299 228.7C224.499 229.3 224.199 230.2 224.199 231V231.1V242.8C224.199 244.3 225.499 245.6 226.999 245.6H244.399C245.899 245.6 247.199 244.3 247.199 242.8V231.1C247.199 230.5 246.999 230 246.599 229.5Z" fill="white"/>
<path d="M246.599 229.5C246.399 229.2 246.199 228.9 245.899 228.7L237.499 221.8C236.399 220.9 234.799 220.9 233.699 221.8L225.299 228.7C224.499 229.3 224.199 230.2 224.199 231V231.1V242.8C224.199 244.3 225.499 245.6 226.999 245.6H244.399C245.899 245.6 247.199 244.3 247.199 242.8V231.1C247.199 230.5 246.999 230 246.599 229.5Z" stroke="#858585" stroke-width="1.5" stroke-miterlimit="100"/>
<path d="M248.699 227.4L236.899 218.8C236.799 218.7 236.699 218.7 236.599 218.6H236.499C236.399 218.6 236.299 218.5 236.199 218.5H236.099C235.999 218.5 235.999 218.5 235.899 218.5C235.799 218.5 235.799 218.5 235.699 218.5C235.599 218.5 235.599 218.5 235.499 218.5C235.399 218.5 235.399 218.5 235.299 218.5H235.199C235.099 218.5 234.999 218.5 234.899 218.6H234.799C234.699 218.6 234.599 218.7 234.499 218.8L222.699 227.4C221.799 228.1 221.499 229.4 222.199 230.3L222.699 231C223.399 231.9 224.699 232.2 225.599 231.5L235.699 224.2L245.799 231.5C246.699 232.2 247.999 231.9 248.699 231L249.199 230.3C249.799 229.3 249.599 228.1 248.699 227.4Z" fill="white" stroke="#858585" stroke-width="1.5" stroke-miterlimit="100"/>
<path d="M239.835 239.816L239.83 239.829L239.825 239.842C239.649 240.371 239.428 240.642 239.216 240.789C239.003 240.936 238.739 241 238.4 241C238.131 241 237.883 240.921 237.685 240.83L237.777 240.675C237.923 240.739 238.108 240.8 238.3 240.8C238.627 240.8 238.927 240.731 239.179 240.479C239.375 240.283 239.514 239.991 239.647 239.724L239.656 239.706L239.664 239.686L239.864 239.186L239.946 238.982L239.851 238.784L237.695 234.3H237.979L239.546 237.708L240.045 238.794L240.468 237.677L241.754 234.275L242.041 234.254L239.835 239.816ZM234.4 234.1C234.781 234.1 235.095 234.232 235.314 234.459C235.534 234.687 235.7 235.054 235.7 235.6V238.4H235.4V235.9C235.4 235.489 235.313 235.085 235.065 234.775C234.802 234.446 234.42 234.3 234 234.3C233.83 234.3 233.677 234.329 233.539 234.375C233.713 234.236 233.986 234.1 234.4 234.1ZM231.2 234.1C231.661 234.1 231.945 234.268 232.115 234.421C232.204 234.501 232.265 234.581 232.303 234.637C232.321 234.665 232.334 234.686 232.341 234.699C232.342 234.7 232.342 234.701 232.343 234.703V234.704L232.576 235.229C232.573 235.235 232.57 235.241 232.567 235.247C232.56 235.261 232.554 235.273 232.55 235.283C232.548 235.287 232.545 235.292 232.544 235.295L232.541 235.301V235.303H232.54L232.5 235.398V238.4H232.2V235.9C232.2 235.489 232.113 235.085 231.865 234.775C231.602 234.446 231.22 234.3 230.8 234.3C230.704 234.3 230.615 234.311 230.529 234.327C230.705 234.199 230.927 234.1 231.2 234.1ZM229.2 234.3V236.429L229.3 236.25V238.4H229V234.3H229.2ZM230.137 234.744V234.745L230.135 234.747L230.136 234.745V234.743L230.137 234.744Z" fill="#858585" stroke="#858585"/>
<path fill-rule="evenodd" clip-rule="evenodd" d="M287.9 29.7002V27.1002C287.9 24.7002 289.9 22.7002 292.3 22.7002H306.4C307 22.7002 307.6 22.8002 308.2 23.1002C306.7 23.8002 305.6 25.3002 305.6 27.1002V29.7002H287.9Z" fill="white" stroke="#181718" stroke-width="1.5" stroke-miterlimit="100"/>
<path fill-rule="evenodd" clip-rule="evenodd" d="M294.1 27.1002C294.1 25.3002 293 23.8002 291.5 23.1002C292 22.9002 292.6 22.7002 293.3 22.7002H307.4C309.8 22.7002 311.8 24.7002 311.8 27.1002V43.8002C311.8 46.2002 314.2 48.2002 311.8 48.2002H297.7C295.8 48.2002 294.2 46.6002 294.2 44.7002L294.1 27.1002Z" fill="white" stroke="#181718" stroke-width="1.5" stroke-miterlimit="100"/>
<path fill-rule="evenodd" clip-rule="evenodd" d="M317.8 42V43.8C317.8 46.2 315.8 48.2 313.4 48.2H300.2C299.6 48.2 299 48.1 298.4 47.8C299.9 47.1 301 45.6 301 43.8V42H317.8Z" fill="white" stroke="#181718" stroke-width="1.5" stroke-miterlimit="100"/>
<path d="M298.5 29.7002H307.3" stroke="#DF0000" stroke-width="1.5" stroke-miterlimit="100" stroke-linecap="round"/>
<path d="M298.5 34.1006H307.3" stroke="#DF0000" stroke-width="1.5" stroke-miterlimit="100" stroke-linecap="round"/>
<path fill-rule="evenodd" clip-rule="evenodd" d="M287.9 226.3V223.7C287.9 221.3 289.9 219.3 292.3 219.3H306.4C307 219.3 307.6 219.4 308.2 219.7C306.7 220.4 305.6 221.9 305.6 223.7V226.3H287.9Z" fill="white" stroke="#858585" stroke-width="1.5" stroke-miterlimit="100"/>
<path fill-rule="evenodd" clip-rule="evenodd" d="M294.1 223.7C294.1 221.9 293 220.4 291.5 219.7C292 219.5 292.6 219.3 293.3 219.3H307.4C309.8 219.3 311.8 221.3 311.8 223.7V240.4C311.8 242.8 314.2 244.8 311.8 244.8H297.7C295.8 244.8 294.2 243.2 294.2 241.3L294.1 223.7Z" fill="white" stroke="#858585" stroke-width="1.5" stroke-miterlimit="100"/>
<path fill-rule="evenodd" clip-rule="evenodd" d="M317.8 238.6V240.4C317.8 242.8 315.8 244.8 313.4 244.8H300.2C299.6 244.8 299 244.7 298.4 244.4C299.9 243.7 301 242.2 301 240.4V238.6H317.8Z" fill="white" stroke="#858585" stroke-width="1.5" stroke-miterlimit="100"/>
<path d="M298.5 226.3H307.3" stroke="#858585" stroke-width="1.5" stroke-miterlimit="100" stroke-linecap="round"/>
<path d="M298.5 230.7H307.3" stroke="#858585" stroke-width="1.5" stroke-miterlimit="100" stroke-linecap="round"/>
<path fill-rule="evenodd" clip-rule="evenodd" d="M21.3996 73.0996H46.6996C47.6996 73.0996 48.4996 73.8996 48.4996 74.8996V89.2996C48.4996 91.2996 46.8996 92.8996 44.8996 92.8996H23.1996C21.1996 92.8996 19.5996 91.2996 19.5996 89.2996V74.8996C19.5996 73.8996 20.3996 73.0996 21.3996 73.0996Z" fill="white"/>
<path fill-rule="evenodd" clip-rule="evenodd" d="M19.5996 78.4004H48.4996V84.0004H19.5996V78.4004Z" fill="white" stroke="#DF0000" stroke-width="1.5" stroke-miterlimit="100"/>
<path fill-rule="evenodd" clip-rule="evenodd" d="M21.3996 73.0996H46.6996C47.6996 73.0996 48.4996 73.8996 48.4996 74.8996V89.2996C48.4996 91.2996 46.8996 92.8996 44.8996 92.8996H23.1996C21.1996 92.8996 19.5996 91.2996 19.5996 89.2996V74.8996C19.5996 73.8996 20.3996 73.0996 21.3996 73.0996Z" stroke="#181718" stroke-width="1.5" stroke-miterlimit="100"/>
<path fill-rule="evenodd" clip-rule="evenodd" d="M21.3996 269.7H46.6996C47.6996 269.7 48.4996 270.5 48.4996 271.5V285.9C48.4996 287.9 46.8996 289.5 44.8996 289.5H23.1996C21.1996 289.5 19.5996 287.9 19.5996 285.9V271.5C19.5996 270.5 20.3996 269.7 21.3996 269.7Z" fill="white"/>
<path fill-rule="evenodd" clip-rule="evenodd" d="M19.5996 275H48.4996V280.6H19.5996V275Z" fill="white" stroke="#858585" stroke-width="1.5" stroke-miterlimit="100"/>
<path fill-rule="evenodd" clip-rule="evenodd" d="M21.3996 269.7H46.6996C47.6996 269.7 48.4996 270.5 48.4996 271.5V285.9C48.4996 287.9 46.8996 289.5 44.8996 289.5H23.1996C21.1996 289.5 19.5996 287.9 19.5996 285.9V271.5C19.5996 270.5 20.3996 269.7 21.3996 269.7Z" stroke="#858585" stroke-width="1.5" stroke-miterlimit="100"/>
<path d="M177.601 96.9994H159.201C158.301 96.9994 157.601 96.2994 157.601 95.3994V76.9994C157.601 76.0994 158.301 75.3994 159.201 75.3994H177.601C178.501 75.3994 179.201 76.0994 179.201 76.9994V95.3994C179.201 96.1994 178.501 96.9994 177.601 96.9994Z" fill="white" stroke="#181718" stroke-width="1.5" stroke-miterlimit="100"/>
<path d="M163.101 78.0992V73.4992C163.101 70.5992 165.501 68.1992 168.401 68.1992C171.301 68.1992 173.701 70.5992 173.701 73.4992V78.0992" stroke="#DF0000" stroke-width="1.5" stroke-miterlimit="100" stroke-linecap="round"/>
<path d="M177.601 96.9998H159.201C158.301 96.9998 157.601 96.2998 157.601 95.3998V89.7998H179.201V95.3998C179.201 96.1998 178.501 96.9998 177.601 96.9998Z" fill="white" stroke="#181718" stroke-width="1.5" stroke-miterlimit="100"/>
<path d="M177.601 293.599H159.201C158.301 293.599 157.601 292.899 157.601 291.999V273.599C157.601 272.699 158.301 271.999 159.201 271.999H177.601C178.501 271.999 179.201 272.699 179.201 273.599V291.999C179.201 292.799 178.501 293.599 177.601 293.599Z" fill="white" stroke="#858585" stroke-width="1.5" stroke-miterlimit="100"/>
<path d="M163.101 274.699V270.099C163.101 267.199 165.501 264.799 168.401 264.799C171.301 264.799 173.701 267.199 173.701 270.099V274.699" stroke="#858585" stroke-width="1.5" stroke-miterlimit="100" stroke-linecap="round"/>
<path d="M177.601 293.599H159.201C158.301 293.599 157.601 292.899 157.601 291.999V286.399H179.201V291.999C179.201 292.799 178.501 293.599 177.601 293.599Z" fill="white" stroke="#858585" stroke-width="1.5" stroke-miterlimit="100"/>
<path d="M225.3 89.3V79.4C225.3 73.7 229.9 69 235.7 69C241.4 69 246.1 73.6 246.1 79.4V89.3" stroke="#181718" stroke-width="1.5" stroke-miterlimit="100"/>
<path d="M225.3 89.8C223.8 89.8 222.6 88.6 222.6 87.1V81.7C222.6 80.2 223.8 79 225.3 79C226.8 79 228 80.2 228 81.7V87.1C228 88.6 226.8 89.8 225.3 89.8Z" fill="white" stroke="#181718" stroke-width="1.5" stroke-miterlimit="100"/>
<path d="M246 85.8994V89.7994C246 92.7994 243.6 95.1994 240.6 95.1994H235.8" stroke="#181718" stroke-width="1.5" stroke-miterlimit="100" stroke-linecap="round"/>
<path d="M246 89.8C244.5 89.8 243.3 88.6 243.3 87.1V81.7C243.3 80.2 244.5 79 246 79C247.5 79 248.7 80.2 248.7 81.7V87.1C248.7 88.6 247.5 89.8 246 89.8Z" fill="white" stroke="#181718" stroke-width="1.5" stroke-miterlimit="100"/>
<path d="M238.4 96.0998H235.7C235 96.0998 234.3 95.4998 234.3 94.6998C234.3 93.9998 234.9 93.2998 235.7 93.2998H238.4C239.1 93.2998 239.8 93.8998 239.8 94.6998C239.7 95.4998 239.1 96.0998 238.4 96.0998Z" fill="white" stroke="#DF0000" stroke-width="1.5" stroke-miterlimit="100"/>
<path d="M225.3 285.899V275.999C225.3 270.299 229.9 265.599 235.7 265.599C241.4 265.599 246.1 270.199 246.1 275.999V285.899" stroke="#858585" stroke-width="1.5" stroke-miterlimit="100"/>
<path d="M225.3 286.399C223.8 286.399 222.6 285.199 222.6 283.699V278.299C222.6 276.799 223.8 275.599 225.3 275.599C226.8 275.599 228 276.799 228 278.299V283.699C228 285.199 226.8 286.399 225.3 286.399Z" fill="white" stroke="#858585" stroke-width="1.5" stroke-miterlimit="100"/>
<path d="M246 282.499V286.399C246 289.399 243.6 291.799 240.6 291.799H235.8" stroke="#858585" stroke-width="1.5" stroke-miterlimit="100" stroke-linecap="round"/>
<path d="M246 286.399C244.5 286.399 243.3 285.199 243.3 283.699V278.299C243.3 276.799 244.5 275.599 246 275.599C247.5 275.599 248.7 276.799 248.7 278.299V283.699C248.7 285.199 247.5 286.399 246 286.399Z" fill="white" stroke="#858585" stroke-width="1.5" stroke-miterlimit="100"/>
<path d="M238.4 292.699H235.7C235 292.699 234.3 292.099 234.3 291.299C234.3 290.599 234.9 289.899 235.7 289.899H238.4C239.1 289.899 239.8 290.499 239.8 291.299C239.7 292.099 239.1 292.699 238.4 292.699Z" fill="white" stroke="#858585" stroke-width="1.5" stroke-miterlimit="100"/>
<path d="M302.901 95.2C309.86 95.2 315.501 89.5588 315.501 82.6C315.501 75.6412 309.86 70 302.901 70C295.942 70 290.301 75.6412 290.301 82.6C290.301 89.5588 295.942 95.2 302.901 95.2Z" fill="white"/>
<mask id="mask0_1361_2904" style="mask-type:luminance" maskUnits="userSpaceOnUse" x="290" y="70" width="26" height="26">
<path d="M302.901 95.2C309.86 95.2 315.501 89.5588 315.501 82.6C315.501 75.6412 309.86 70 302.901 70C295.942 70 290.301 75.6412 290.301 82.6C290.301 89.5588 295.942 95.2 302.901 95.2Z" fill="white"/>
</mask>
<g mask="url(#mask0_1361_2904)">
<path fill-rule="evenodd" clip-rule="evenodd" d="M304.101 86.4002H301.501C298.301 86.4002 295.601 89.4002 295.601 93.0002V94.1002C295.601 96.3002 297.201 98.1002 299.101 98.1002H306.401C308.301 98.1002 309.901 96.3002 309.901 94.1002V93.0002C310.001 89.3002 307.401 86.4002 304.101 86.4002ZM302.701 83.6002C304.701 83.6002 306.401 82.0002 306.401 79.9002C306.401 77.8002 304.801 76.2002 302.701 76.2002C300.701 76.2002 299.001 77.8002 299.001 79.9002C299.101 82.0002 300.701 83.6002 302.701 83.6002Z" fill="white"/>
<path d="M304.101 86.4002H301.501C298.301 86.4002 295.601 89.4002 295.601 93.0002V94.1002C295.601 96.3002 297.201 98.1002 299.101 98.1002H306.401C308.301 98.1002 309.901 96.3002 309.901 94.1002V93.0002C310.001 89.3002 307.401 86.4002 304.101 86.4002ZM302.701 83.6002C304.701 83.6002 306.401 82.0002 306.401 79.9002C306.401 77.8002 304.801 76.2002 302.701 76.2002C300.701 76.2002 299.001 77.8002 299.001 79.9002C299.101 82.0002 300.701 83.6002 302.701 83.6002Z" stroke="#DF0000" stroke-width="1.5" stroke-miterlimit="100"/>
</g>
<path d="M302.901 95.2C309.86 95.2 315.501 89.5588 315.501 82.6C315.501 75.6412 309.86 70 302.901 70C295.942 70 290.301 75.6412 290.301 82.6C290.301 89.5588 295.942 95.2 302.901 95.2Z" stroke="#181718" stroke-width="1.5" stroke-miterlimit="100"/>
<path d="M302.901 291.799C309.86 291.799 315.501 286.158 315.501 279.199C315.501 272.24 309.86 266.599 302.901 266.599C295.942 266.599 290.301 272.24 290.301 279.199C290.301 286.158 295.942 291.799 302.901 291.799Z" fill="white"/>
<mask id="mask1_1361_2904" style="mask-type:luminance" maskUnits="userSpaceOnUse" x="290" y="266" width="26" height="26">
<path d="M302.901 291.799C309.86 291.799 315.501 286.158 315.501 279.199C315.501 272.24 309.86 266.599 302.901 266.599C295.942 266.599 290.301 272.24 290.301 279.199C290.301 286.158 295.942 291.799 302.901 291.799Z" fill="white"/>
</mask>
<g mask="url(#mask1_1361_2904)">
<path fill-rule="evenodd" clip-rule="evenodd" d="M304.101 282.999H301.501C298.301 282.999 295.601 285.999 295.601 289.599V290.699C295.601 292.899 297.201 294.699 299.101 294.699H306.401C308.301 294.699 309.901 292.899 309.901 290.699V289.599C310.001 285.899 307.401 282.999 304.101 282.999ZM302.701 280.199C304.701 280.199 306.401 278.599 306.401 276.499C306.401 274.399 304.801 272.799 302.701 272.799C300.701 272.799 299.001 274.399 299.001 276.499C299.101 278.599 300.701 280.199 302.701 280.199Z" fill="white"/>
<path d="M304.101 282.999H301.501C298.301 282.999 295.601 285.999 295.601 289.599V290.699C295.601 292.899 297.201 294.699 299.101 294.699H306.401C308.301 294.699 309.901 292.899 309.901 290.699V289.599C310.001 285.899 307.401 282.999 304.101 282.999ZM302.701 280.199C304.701 280.199 306.401 278.599 306.401 276.499C306.401 274.399 304.801 272.799 302.701 272.799C300.701 272.799 299.001 274.399 299.001 276.499C299.101 278.599 300.701 280.199 302.701 280.199Z" stroke="#858585" stroke-width="1.5" stroke-miterlimit="100"/>
</g>
<path d="M302.901 291.799C309.86 291.799 315.501 286.158 315.501 279.199C315.501 272.24 309.86 266.599 302.901 266.599C295.942 266.599 290.301 272.24 290.301 279.199C290.301 286.158 295.942 291.799 302.901 291.799Z" stroke="#858585" stroke-width="1.5" stroke-miterlimit="100"/>
<path d="M96.8004 95.6004H88.4004V77.3004C88.4004 76.8004 88.8004 76.4004 89.3004 76.4004H95.8004C96.3004 76.4004 96.7004 76.8004 96.7004 77.3004C96.8004 77.3004 96.8004 95.6004 96.8004 95.6004Z" fill="white" stroke="#181718" stroke-width="1.5" stroke-miterlimit="100"/>
<path d="M105.201 95.6004H96.8008V71.3004C96.8008 70.8004 97.2008 70.4004 97.7008 70.4004H104.201C104.701 70.4004 105.101 70.8004 105.101 71.3004C105.201 71.3004 105.201 95.6004 105.201 95.6004Z" fill="white" stroke="#181718" stroke-width="1.5" stroke-miterlimit="100"/>
<path d="M113.6 95.6006H105.2V74.0006C105.2 73.5006 105.6 73.1006 106.1 73.1006H112.6C113.1 73.1006 113.5 73.5006 113.5 74.0006L113.6 95.6006Z" fill="white" stroke="#181718" stroke-width="1.5" stroke-miterlimit="100"/>
<path d="M98.2998 77H103.675" stroke="#DF0000" stroke-width="1.5" stroke-miterlimit="100" stroke-linecap="square"/>
<path d="M88.4004 82.4004H96.2004" stroke="#181718" stroke-width="1.5" stroke-miterlimit="100" stroke-linecap="round"/>
<path d="M105.5 78.8008H113.3" stroke="#181718" stroke-width="1.5" stroke-miterlimit="100" stroke-linecap="round"/>
<path d="M86.0996 95.5996H115.9" stroke="#181718" stroke-width="1.5" stroke-miterlimit="100" stroke-linecap="round"/>
<path d="M96.8004 292.2H88.4004V273.9C88.4004 273.4 88.8004 273 89.3004 273H95.8004C96.3004 273 96.7004 273.4 96.7004 273.9C96.8004 273.9 96.8004 292.2 96.8004 292.2Z" fill="white" stroke="#858585" stroke-width="1.5" stroke-miterlimit="100"/>
<path d="M105.201 292.2H96.8008V267.9C96.8008 267.4 97.2008 267 97.7008 267H104.201C104.701 267 105.101 267.4 105.101 267.9C105.201 267.9 105.201 292.2 105.201 292.2Z" fill="white" stroke="#858585" stroke-width="1.5" stroke-miterlimit="100"/>
<path d="M113.6 292.2H105.2V270.6C105.2 270.1 105.6 269.7 106.1 269.7H112.6C113.1 269.7 113.5 270.1 113.5 270.6L113.6 292.2Z" fill="white" stroke="#858585" stroke-width="1.5" stroke-miterlimit="100"/>
<path d="M98.2998 273.6H103.675" stroke="#858585" stroke-width="1.5" stroke-miterlimit="100" stroke-linecap="square"/>
<path d="M88.4004 279H96.2004" stroke="#858585" stroke-width="1.5" stroke-miterlimit="100" stroke-linecap="round"/>
<path d="M105.5 275.399H113.3" stroke="#858585" stroke-width="1.5" stroke-miterlimit="100" stroke-linecap="round"/>
<path d="M86.0996 292.2H115.9" stroke="#858585" stroke-width="1.5" stroke-miterlimit="100" stroke-linecap="round"/>
<g clip-path="url(#clip0_1361_2904)">
<path d="M358.25 97.9597C357.56 98.1797 356.82 97.4397 357.04 96.7497L365.18 71.2297C365.37 70.6397 366.13 70.5297 366.61 71.0097L383.99 88.3897C384.47 88.8697 384.36 89.6297 383.77 89.8197L358.25 97.9597Z" fill="white"/>
<path d="M377.53 71.9895C377.62 71.7795 377.91 71.7795 378 71.9895L378.53 73.2895C378.53 73.2895 378.59 73.3695 378.65 73.3695L380.04 73.4895C380.26 73.5095 380.35 73.7795 380.18 73.9295L379.12 74.8695C379.12 74.8695 379.07 74.9495 379.08 74.9995L379.4 76.3895C379.45 76.6095 379.21 76.7795 379.02 76.6595L377.84 75.9295C377.84 75.9295 377.74 75.8995 377.69 75.9295L376.51 76.6595C376.32 76.7795 376.09 76.6095 376.13 76.3895L376.45 74.9995C376.45 74.9995 376.45 74.8995 376.41 74.8695L375.35 73.9295C375.19 73.7895 375.28 73.5195 375.49 73.4995L376.88 73.3795C376.93 73.3795 376.98 73.3395 377 73.2995L377.53 71.9995V71.9895Z" fill="#DF0000"/>
<path d="M385.14 73.4397C385.23 73.2297 385.52 73.2297 385.61 73.4397L386.14 74.7397C386.14 74.7397 386.2 74.8197 386.26 74.8197L387.65 74.9397C387.87 74.9597 387.96 75.2297 387.79 75.3797L386.73 76.3197C386.73 76.3197 386.68 76.3997 386.69 76.4497L387.01 77.8397C387.06 78.0597 386.82 78.2297 386.63 78.1097L385.45 77.3797C385.45 77.3797 385.35 77.3497 385.3 77.3797L384.12 78.1097C383.93 78.2297 383.7 78.0597 383.74 77.8397L384.06 76.4497C384.06 76.4497 384.06 76.3497 384.02 76.3197L382.96 75.3797C382.8 75.2397 382.89 74.9697 383.1 74.9497L384.49 74.8297C384.54 74.8297 384.59 74.7897 384.61 74.7497L385.14 73.4497V73.4397Z" fill="#181718"/>
<path d="M357.04 96.7499C356.82 97.4399 357.56 98.1799 358.25 97.9599L364.07 96.0999L358.89 90.9199L357.03 96.7399L357.04 96.7499Z" fill="#DF0000"/>
<path d="M361.971 81.2897L373.711 93.0297L378.071 91.6397L363.361 76.9297L361.971 81.2897Z" fill="white" stroke="#181718" stroke-width="1.5" stroke-miterlimit="100"/>
<path d="M358.9 90.9296L364.07 96.0996L368.44 94.7096L360.29 86.5596L358.9 90.9296Z" fill="white" stroke="#181718" stroke-width="1.5" stroke-miterlimit="100"/>
<path d="M358.9 97.7497C357.88 98.0697 356.92 97.1197 357.25 96.0997L365.18 71.2297C365.37 70.6397 366.13 70.5297 366.61 71.0097L383.99 88.3897C384.47 88.8697 384.36 89.6297 383.77 89.8197L358.9 97.7497Z" stroke="#181718" stroke-width="1.5" stroke-miterlimit="100"/>
<path d="M383.6 82.6699C384.152 82.6699 384.6 82.2222 384.6 81.6699C384.6 81.1176 384.152 80.6699 383.6 80.6699C383.047 80.6699 382.6 81.1176 382.6 81.6699C382.6 82.2222 383.047 82.6699 383.6 82.6699Z" fill="#181718"/>
<path d="M381.87 71.1504C382.422 71.1504 382.87 70.7027 382.87 70.1504C382.87 69.5981 382.422 69.1504 381.87 69.1504C381.318 69.1504 380.87 69.5981 380.87 70.1504C380.87 70.7027 381.318 71.1504 381.87 71.1504Z" fill="#181718"/>
<path d="M372.71 71.4697C373.262 71.4697 373.71 71.022 373.71 70.4697C373.71 69.9174 373.262 69.4697 372.71 69.4697C372.158 69.4697 371.71 69.9174 371.71 70.4697C371.71 71.022 372.158 71.4697 372.71 71.4697Z" fill="#181718"/>
</g>
<g clip-path="url(#clip1_1361_2904)">
<path d="M358.25 294.56C357.56 294.78 356.82 294.04 357.04 293.35L365.18 267.83C365.37 267.24 366.13 267.13 366.61 267.61L383.99 284.99C384.47 285.47 384.36 286.23 383.77 286.42L358.25 294.56Z" fill="white"/>
<path d="M377.53 268.59C377.62 268.38 377.91 268.38 378 268.59L378.53 269.89C378.53 269.89 378.59 269.97 378.65 269.97L380.04 270.09C380.26 270.11 380.35 270.38 380.18 270.53L379.12 271.47C379.12 271.47 379.07 271.55 379.08 271.6L379.4 272.99C379.45 273.21 379.21 273.38 379.02 273.26L377.84 272.53C377.84 272.53 377.74 272.5 377.69 272.53L376.51 273.26C376.32 273.38 376.09 273.21 376.13 272.99L376.45 271.6C376.45 271.6 376.45 271.5 376.41 271.47L375.35 270.53C375.19 270.39 375.28 270.12 375.49 270.1L376.88 269.98C376.93 269.98 376.98 269.94 377 269.9L377.53 268.6V268.59Z" fill="#858585"/>
<path d="M385.14 270.04C385.23 269.83 385.52 269.83 385.61 270.04L386.14 271.34C386.14 271.34 386.2 271.42 386.26 271.42L387.65 271.54C387.87 271.56 387.96 271.83 387.79 271.98L386.73 272.92C386.73 272.92 386.68 273 386.69 273.05L387.01 274.44C387.06 274.66 386.82 274.83 386.63 274.71L385.45 273.98C385.45 273.98 385.35 273.95 385.3 273.98L384.12 274.71C383.93 274.83 383.7 274.66 383.74 274.44L384.06 273.05C384.06 273.05 384.06 272.95 384.02 272.92L382.96 271.98C382.8 271.84 382.89 271.57 383.1 271.55L384.49 271.43C384.54 271.43 384.59 271.39 384.61 271.35L385.14 270.05V270.04Z" fill="#858585"/>
<path d="M357.04 293.35C356.82 294.04 357.56 294.78 358.25 294.56L364.07 292.7L358.89 287.52L357.03 293.34L357.04 293.35Z" fill="white"/>
<path d="M361.971 277.89L373.711 289.63L378.071 288.24L363.361 273.53L361.971 277.89Z" fill="white" stroke="#858585" stroke-width="1.5" stroke-miterlimit="100"/>
<path d="M358.9 287.53L364.07 292.7L368.44 291.31L360.29 283.16L358.9 287.53Z" fill="white" stroke="#858585" stroke-width="1.5" stroke-miterlimit="100"/>
<path d="M358.9 294.35C357.88 294.67 356.92 293.72 357.25 292.7L365.18 267.83C365.37 267.24 366.13 267.13 366.61 267.61L383.99 284.99C384.47 285.47 384.36 286.23 383.77 286.42L358.9 294.35Z" stroke="#858585" stroke-width="1.5" stroke-miterlimit="100"/>
<path d="M383.6 279.27C384.152 279.27 384.6 278.822 384.6 278.27C384.6 277.717 384.152 277.27 383.6 277.27C383.047 277.27 382.6 277.717 382.6 278.27C382.6 278.822 383.047 279.27 383.6 279.27Z" fill="#858585"/>
<path d="M381.87 267.75C382.422 267.75 382.87 267.302 382.87 266.75C382.87 266.197 382.422 265.75 381.87 265.75C381.318 265.75 380.87 266.197 380.87 266.75C380.87 267.302 381.318 267.75 381.87 267.75Z" fill="#858585"/>
<path d="M372.71 268.07C373.262 268.07 373.71 267.622 373.71 267.07C373.71 266.518 373.262 266.07 372.71 266.07C372.158 266.07 371.71 266.518 371.71 267.07C371.71 267.622 372.158 268.07 372.71 268.07Z" fill="#858585"/>
</g>
<g clip-path="url(#clip2_1361_2904)">
<path fill-rule="evenodd" clip-rule="evenodd" d="M156 125.01H182V137.01C182 140.32 179.31 143.01 176 143.01H162C158.69 143.01 156 140.32 156 137.01V125.01Z" fill="white"/>
<path d="M181.25 125.76V137.01C181.25 138.46 180.66 139.77 179.71 140.72C178.73 141.71 177.39 142.26 176 142.26H162C160.61 142.26 159.27 141.71 158.29 140.72C157.3 139.74 156.75 138.4 156.75 137.01V125.76H181.25Z" fill="white" stroke="#181718" stroke-width="1.5"/>
<path fill-rule="evenodd" clip-rule="evenodd" d="M175.3 116.01C175.73 115.75 176.22 115.68 176.68 115.79C177.5 115.99 178.08 116.72 178.08 117.56V120.7C178.08 121.39 177.77 122.03 177.23 122.46L172.84 125.96C172.43 126.29 171.92 126.42 171.44 126.36C170.48 126.25 169.75 125.44 169.75 124.47V120.66C169.75 119.88 170.16 119.15 170.83 118.74L175.3 116V116.01ZM162.53 116.01C162.12 115.76 161.62 115.68 161.15 115.79C160.33 115.99 159.75 116.72 159.75 117.56V120.7C159.75 121.38 160.06 122.03 160.6 122.46L164.99 125.96C165.4 126.29 165.9 126.42 166.39 126.36C167.35 126.25 168.08 125.44 168.08 124.47V120.66C168.08 119.88 167.67 119.15 167 118.74L162.53 116V116.01Z" fill="white" stroke="#DF0000" stroke-width="1.5"/>
<path d="M181.25 120.76H156.75C155.093 120.76 153.75 122.103 153.75 123.76V124.26C153.75 125.917 155.093 127.26 156.75 127.26H181.25C182.907 127.26 184.25 125.917 184.25 124.26V123.76C184.25 122.103 182.907 120.76 181.25 120.76Z" fill="white" stroke="#181718" stroke-width="1.5"/>
<path fill-rule="evenodd" clip-rule="evenodd" d="M166 121.01H172V127.01H166V121.01Z" fill="white"/>
<path d="M181.25 120.76H156.75C155.093 120.76 153.75 122.103 153.75 123.76V124.26C153.75 125.917 155.093 127.26 156.75 127.26H181.25C182.907 127.26 184.25 125.917 184.25 124.26V123.76C184.25 122.103 182.907 120.76 181.25 120.76Z" stroke="#181718" stroke-width="1.5"/>
<path d="M166 120.521V142.051M172 120.521V142.051" stroke="#181718" stroke-width="1.5"/>
</g>
<g clip-path="url(#clip3_1361_2904)">
<path fill-rule="evenodd" clip-rule="evenodd" d="M156 322.01H182V334.01C182 337.32 179.31 340.01 176 340.01H162C158.69 340.01 156 337.32 156 334.01V322.01Z" fill="white"/>
<path d="M181.25 322.76V334.01C181.25 335.46 180.66 336.77 179.71 337.72C178.73 338.71 177.39 339.26 176 339.26H162C160.61 339.26 159.27 338.71 158.29 337.72C157.3 336.74 156.75 335.4 156.75 334.01V322.76H181.25Z" fill="white" stroke="#858585" stroke-width="1.5"/>
<path fill-rule="evenodd" clip-rule="evenodd" d="M175.3 313.01C175.73 312.75 176.22 312.68 176.68 312.79C177.5 312.99 178.08 313.72 178.08 314.56V317.7C178.08 318.39 177.77 319.03 177.23 319.46L172.84 322.96C172.43 323.29 171.92 323.42 171.44 323.36C170.48 323.25 169.75 322.44 169.75 321.47V317.66C169.75 316.88 170.16 316.15 170.83 315.74L175.3 313V313.01ZM162.53 313.01C162.12 312.76 161.62 312.68 161.15 312.79C160.33 312.99 159.75 313.72 159.75 314.56V317.7C159.75 318.38 160.06 319.03 160.6 319.46L164.99 322.96C165.4 323.29 165.9 323.42 166.39 323.36C167.35 323.25 168.08 322.44 168.08 321.47V317.66C168.08 316.88 167.67 316.15 167 315.74L162.53 313V313.01Z" fill="white" stroke="#858585" stroke-width="1.5"/>
<path d="M181.25 317.76H156.75C155.093 317.76 153.75 319.103 153.75 320.76V321.26C153.75 322.917 155.093 324.26 156.75 324.26H181.25C182.907 324.26 184.25 322.917 184.25 321.26V320.76C184.25 319.103 182.907 317.76 181.25 317.76Z" fill="white" stroke="#858585" stroke-width="1.5"/>
<path fill-rule="evenodd" clip-rule="evenodd" d="M166 318.01H172V324.01H166V318.01Z" fill="white"/>
<path d="M181.25 317.76H156.75C155.093 317.76 153.75 319.103 153.75 320.76V321.26C153.75 322.917 155.093 324.26 156.75 324.26H181.25C182.907 324.26 184.25 322.917 184.25 321.26V320.76C184.25 319.103 182.907 317.76 181.25 317.76Z" stroke="#858585" stroke-width="1.5"/>
<path d="M166 317.52V339.05M172 317.52V339.05" stroke="#858585" stroke-width="1.5"/>
</g>
<g clip-path="url(#clip4_1361_2904)">
<path fill-rule="evenodd" clip-rule="evenodd" d="M92.9355 142.305L89.7755 139.285C88.9755 138.525 88.9455 137.255 89.7155 136.455C89.7255 136.445 89.7355 136.435 89.7455 136.425L91.0255 135.145L93.6355 132.415C94.0155 132.025 94.5355 131.795 95.0855 131.795H101.675C102.425 132.105 102.795 132.635 102.795 133.405C102.795 134.175 102.415 134.685 101.675 134.925H98.7955" fill="white"/>
<path fill-rule="evenodd" clip-rule="evenodd" d="M98.8149 134.945H105.845L110.085 130.805C110.985 130.485 111.715 130.595 112.275 131.125C112.835 131.655 112.985 132.375 112.725 133.275L107.345 138.655C106.975 139.035 106.465 139.245 105.935 139.245H98.2949L95.4549 142.055C94.6849 142.815 93.4449 142.825 92.6649 142.075L89.7549 139.295" fill="white"/>
<path d="M92.9355 142.305L89.7755 139.285C88.9755 138.525 88.9455 137.255 89.7155 136.455C89.7255 136.445 89.7355 136.435 89.7455 136.425L91.0255 135.145L93.6355 132.415C94.0155 132.025 94.5355 131.795 95.0855 131.795H101.675C102.425 132.105 102.795 132.635 102.795 133.405C102.795 134.175 102.415 134.685 101.675 134.925H98.7955" stroke="#181718" stroke-width="1.5" stroke-linecap="round" stroke-linejoin="round"/>
<path d="M98.8149 134.945H105.845L110.085 130.805C110.985 130.485 111.715 130.595 112.275 131.125C112.835 131.655 112.985 132.375 112.725 133.275L107.345 138.655C106.975 139.035 106.465 139.245 105.935 139.245H98.2949L95.4549 142.055C94.6849 142.815 93.4449 142.825 92.6649 142.075L89.7549 139.295" stroke="#181718" stroke-width="1.5" stroke-linecap="round" stroke-linejoin="round"/>
<path fill-rule="evenodd" clip-rule="evenodd" d="M107.685 115.415C108.295 115.295 108.895 115.435 109.375 115.755C109.855 116.075 110.205 116.575 110.325 117.185L110.365 124.505C110.365 125.585 109.605 126.505 108.545 126.715L101.105 128.185L93.6853 126.755C92.6253 126.555 91.8553 125.625 91.8653 124.545V117.655C91.8653 117.035 92.1153 116.475 92.5253 116.065C92.9353 115.655 93.4953 115.405 94.1153 115.405L101.115 116.715L107.675 115.415H107.685Z" fill="white" stroke="#DF0000" stroke-width="1.5"/>
<path d="M101.136 117.265V127.925" stroke="#DF0000" stroke-width="1.5" stroke-linecap="round"/>
</g>
<g clip-path="url(#clip5_1361_2904)">
<path fill-rule="evenodd" clip-rule="evenodd" d="M92.9355 339.305L89.7755 336.285C88.9755 335.525 88.9455 334.255 89.7155 333.455C89.7255 333.445 89.7355 333.435 89.7455 333.425L91.0255 332.145L93.6355 329.415C94.0155 329.025 94.5355 328.795 95.0855 328.795H101.675C102.425 329.105 102.795 329.635 102.795 330.405C102.795 331.175 102.415 331.685 101.675 331.925H98.7955" fill="white"/>
<path fill-rule="evenodd" clip-rule="evenodd" d="M98.8149 331.945H105.845L110.085 327.805C110.985 327.485 111.715 327.595 112.275 328.125C112.835 328.655 112.985 329.375 112.725 330.275L107.345 335.655C106.975 336.035 106.465 336.245 105.935 336.245H98.2949L95.4549 339.055C94.6849 339.815 93.4449 339.825 92.6649 339.075L89.7549 336.295" fill="white"/>
<path d="M92.9355 339.305L89.7755 336.285C88.9755 335.525 88.9455 334.255 89.7155 333.455C89.7255 333.445 89.7355 333.435 89.7455 333.425L91.0255 332.145L93.6355 329.415C94.0155 329.025 94.5355 328.795 95.0855 328.795H101.675C102.425 329.105 102.795 329.635 102.795 330.405C102.795 331.175 102.415 331.685 101.675 331.925H98.7955" stroke="#858585" stroke-width="1.5" stroke-linecap="round" stroke-linejoin="round"/>
<path d="M98.8149 331.945H105.845L110.085 327.805C110.985 327.485 111.715 327.595 112.275 328.125C112.835 328.655 112.985 329.375 112.725 330.275L107.345 335.655C106.975 336.035 106.465 336.245 105.935 336.245H98.2949L95.4549 339.055C94.6849 339.815 93.4449 339.825 92.6649 339.075L89.7549 336.295" stroke="#858585" stroke-width="1.5" stroke-linecap="round" stroke-linejoin="round"/>
<path fill-rule="evenodd" clip-rule="evenodd" d="M107.685 312.415C108.295 312.295 108.895 312.435 109.375 312.755C109.855 313.075 110.205 313.575 110.325 314.185L110.365 321.505C110.365 322.585 109.605 323.505 108.545 323.715L101.105 325.185L93.6853 323.755C92.6253 323.555 91.8553 322.625 91.8653 321.545V314.655C91.8653 314.035 92.1153 313.475 92.5253 313.065C92.9353 312.655 93.4953 312.405 94.1153 312.405L101.115 313.715L107.675 312.415H107.685Z" fill="white" stroke="#858585" stroke-width="1.5"/>
<path d="M101.136 314.265V324.925" stroke="#858585" stroke-width="1.5" stroke-linecap="round"/>
</g>
<path d="M222.884 133.676C225.103 139.258 230.954 143.827 237.088 143.413C238.011 143.35 238.838 143.088 239.461 142.527C242.534 139.761 238.904 137.724 240.432 134.858C241.562 133.259 243.008 133.066 244.497 133.178C249.159 133.531 252.06 129.257 250.538 124.954C249.774 122.794 248.222 120.352 245.231 118.007C235.852 112.169 227.669 115.805 223.894 121.283C222.031 123.986 220.943 128.793 222.884 133.676Z" fill="white" stroke="#303535" stroke-width="1.5" stroke-miterlimit="10"/>
<path d="M240.652 126.11L242.563 128.334C242.563 128.334 245.916 126.028 249.376 122.105C252.836 118.181 255.216 115.107 254.027 113.529C251.298 110.551 243.14 120.891 240.654 126.11H240.652Z" fill="white" stroke="#303535" stroke-width="1.5" stroke-miterlimit="10"/>
<rect x="238.559" y="125" width="5" height="5" rx="2.5" fill="white"/>
<path d="M239.262 127.649C238.509 126.82 238.007 126.958 237.85 127.131C237.473 127.96 235.34 129.548 234.556 129.721C234.556 130.066 235.12 130.964 237.379 131.793C239.638 132.622 241.771 130.757 242.556 129.721H241.144C240.203 129.721 240.203 128.685 239.262 127.649Z" fill="#DF0000"/>
<path d="M243.369 127.218C243.369 127.218 243.769 129.945 241.221 131.306C238.673 132.667 236.434 131.495 235.584 130.985C234.734 130.476 233.923 129.871 234.658 129.417C235.392 128.962 236.512 129.718 238.171 126.468C239.831 123.217 243.422 125.069 243.383 127.527L243.369 127.218Z" stroke="#303535" stroke-width="1.5" stroke-miterlimit="10"/>
<path d="M229.088 135.271C230.286 135.271 231.258 134.272 231.258 133.04C231.258 131.808 230.286 130.81 229.088 130.81C227.889 130.81 226.918 131.808 226.918 133.04C226.918 134.272 227.889 135.271 229.088 135.271Z" fill="#DF0000" stroke="#303535" stroke-width="1.5"/>
<path d="M229.088 126.888C230.286 126.888 231.258 125.89 231.258 124.658C231.258 123.426 230.286 122.427 229.088 122.427C227.889 122.427 226.918 123.426 226.918 124.658C226.918 125.89 227.889 126.888 229.088 126.888Z" fill="white" stroke="#303535" stroke-width="1.5"/>
<path d="M236.42 122.699C237.618 122.699 238.59 121.7 238.59 120.468C238.59 119.236 237.618 118.237 236.42 118.237C235.221 118.237 234.25 119.236 234.25 120.468C234.25 121.7 235.221 122.699 236.42 122.699Z" fill="white" stroke="#303535" stroke-width="1.5"/>
<path d="M237.666 127.808C237.976 127.765 238.894 127.554 239.7 128.122C240.431 128.637 240.171 129.549 240.999 129.99C241.662 130.343 242.523 130.096 242.523 130.096" stroke="#303535" stroke-width="1.5" stroke-linecap="round"/>
<path d="M222.884 330.676C225.103 336.258 230.954 340.827 237.088 340.413C238.011 340.35 238.838 340.088 239.461 339.527C242.534 336.761 238.904 334.724 240.432 331.858C241.562 330.259 243.008 330.066 244.497 330.178C249.159 330.531 252.06 326.257 250.538 321.954C249.774 319.794 248.222 317.352 245.231 315.007C235.852 309.169 227.669 312.805 223.894 318.283C222.031 320.986 220.943 325.793 222.884 330.676Z" fill="white" stroke="#858585" stroke-width="1.5" stroke-miterlimit="10"/>
<path d="M240.652 323.11L242.563 325.334C242.563 325.334 245.916 323.028 249.376 319.105C252.836 315.181 255.216 312.107 254.027 310.529C251.298 307.551 243.14 317.891 240.654 323.11H240.652Z" fill="white" stroke="#858585" stroke-width="1.5" stroke-miterlimit="10"/>
<rect x="238.559" y="322" width="5" height="5" rx="2.5" fill="white"/>
<path d="M243.369 324.218C243.369 324.218 243.769 326.945 241.221 328.306C238.673 329.667 236.434 328.495 235.584 327.985C234.734 327.476 233.923 326.871 234.658 326.417C235.392 325.962 236.512 326.718 238.171 323.468C239.831 320.217 243.422 322.069 243.383 324.527L243.369 324.218Z" stroke="#858585" stroke-width="1.5" stroke-miterlimit="10"/>
<path d="M229.088 332.271C230.286 332.271 231.258 331.272 231.258 330.04C231.258 328.808 230.286 327.81 229.088 327.81C227.889 327.81 226.918 328.808 226.918 330.04C226.918 331.272 227.889 332.271 229.088 332.271Z" stroke="#858585" stroke-width="1.5"/>
<path d="M229.088 323.888C230.286 323.888 231.258 322.89 231.258 321.658C231.258 320.426 230.286 319.427 229.088 319.427C227.889 319.427 226.918 320.426 226.918 321.658C226.918 322.89 227.889 323.888 229.088 323.888Z" fill="white" stroke="#858585" stroke-width="1.5"/>
<path d="M236.42 319.699C237.618 319.699 238.59 318.7 238.59 317.468C238.59 316.236 237.618 315.237 236.42 315.237C235.221 315.237 234.25 316.236 234.25 317.468C234.25 318.7 235.221 319.699 236.42 319.699Z" fill="white" stroke="#858585" stroke-width="1.5"/>
<path d="M237.666 324.808C237.976 324.764 238.894 324.554 239.7 325.122C240.431 325.637 240.171 326.549 240.999 326.99C241.662 327.343 242.523 327.095 242.523 327.095" stroke="#858585" stroke-width="1.5" stroke-linecap="round"/>
<path fill-rule="evenodd" clip-rule="evenodd" d="M361.2 48.6002H379.2C382.5 48.6002 385.2 45.7002 385.2 42.2002V33.8002C385.2 33.2002 384.8 32.7002 384.2 32.7002H356.2C355.6 32.7002 355.2 33.2002 355.2 33.8002V42.2002C355.2 45.7002 358 48.6002 361.2 48.6002Z" fill="white"/>
<path fill-rule="evenodd" clip-rule="evenodd" d="M380.3 25.4004C381.5 25.4004 382.5 25.8004 383.3 26.5004C384.1 27.2004 384.5 28.1004 384.5 29.1004V32.8004H356V29.1004C356 28.1004 356.5 27.2004 357.2 26.5004C358 25.8004 359.1 25.4004 360.2 25.4004H380.3Z" fill="white"/>
<path d="M359.9 25.4004H380.6C382.8 25.4004 384.5 27.2004 384.5 29.3004V43.9004C384.5 46.7004 382.3 48.9004 379.5 48.9004H361C358.2 48.9004 356 46.7004 356 43.9004V29.3004C356.1 27.1004 357.8 25.4004 359.9 25.4004Z" stroke="#181718" stroke-width="1.5"/>
<path fill-rule="evenodd" clip-rule="evenodd" d="M360.3 21.7002C360.9 21.7002 361.3 22.1002 361.3 22.7002V24.7002C361.3 25.3002 360.9 25.7002 360.3 25.7002C359.7 25.7002 359.3 25.3002 359.3 24.7002V22.7002C359.3 22.1002 359.7 21.7002 360.3 21.7002Z" fill="#181718"/>
<path fill-rule="evenodd" clip-rule="evenodd" d="M380.3 21.7002C380.9 21.7002 381.3 22.1002 381.3 22.7002V24.7002C381.3 25.3002 380.9 25.7002 380.3 25.7002C379.7 25.7002 379.3 25.3002 379.3 24.7002V22.7002C379.3 22.1002 379.7 21.7002 380.3 21.7002Z" fill="#181718"/>
<path d="M356.5 32.7998H384" stroke="#181718" stroke-width="1.5"/>
<path d="M369.8 36.0998C370 35.6998 370.6 35.6998 370.7 36.0998L371.8 38.6998C371.8 38.7998 371.9 38.8998 372 38.8998L374.8 39.0998C375.2 39.0998 375.4 39.6998 375.1 39.9998L373 41.8998C372.9 41.9998 372.9 42.0998 372.9 42.1998L373.5 44.9998C373.6 45.3998 373.1 45.7998 372.8 45.4998L370.4 43.9998C370.3 43.8998 370.2 43.8998 370.1 43.9998L367.7 45.4998C367.3 45.6998 366.9 45.3998 367 44.9998L367.6 42.1998C367.6 42.0998 367.6 41.9998 367.5 41.8998L365.4 39.9998C365.1 39.6998 365.3 39.1998 365.7 39.0998L368.5 38.8998C368.6 38.8998 368.7 38.7998 368.7 38.6998L369.8 36.0998Z" fill="white" stroke="#DF0000" stroke-width="1.5" stroke-miterlimit="100"/>
<path fill-rule="evenodd" clip-rule="evenodd" d="M361.2 245.2H379.2C382.5 245.2 385.2 242.3 385.2 238.8V230.4C385.2 229.8 384.8 229.3 384.2 229.3H356.2C355.6 229.3 355.2 229.8 355.2 230.4V238.8C355.2 242.3 358 245.2 361.2 245.2Z" fill="white"/>
<path fill-rule="evenodd" clip-rule="evenodd" d="M380.3 222C381.5 222 382.5 222.4 383.3 223.1C384.1 223.8 384.5 224.7 384.5 225.7V229.4H356V225.7C356 224.7 356.5 223.8 357.2 223.1C358 222.4 359.1 222 360.2 222H380.3Z" fill="white"/>
<path d="M359.9 222H380.6C382.8 222 384.5 223.8 384.5 225.9V240.5C384.5 243.3 382.3 245.5 379.5 245.5H361C358.2 245.5 356 243.3 356 240.5V225.9C356.1 223.7 357.8 222 359.9 222Z" stroke="#858585" stroke-width="1.5"/>
<path fill-rule="evenodd" clip-rule="evenodd" d="M360.3 218.3C360.9 218.3 361.3 218.7 361.3 219.3V221.3C361.3 221.9 360.9 222.3 360.3 222.3C359.7 222.3 359.3 221.9 359.3 221.3V219.3C359.3 218.7 359.7 218.3 360.3 218.3Z" fill="#858585"/>
<path fill-rule="evenodd" clip-rule="evenodd" d="M380.3 218.3C380.9 218.3 381.3 218.7 381.3 219.3V221.3C381.3 221.9 380.9 222.3 380.3 222.3C379.7 222.3 379.3 221.9 379.3 221.3V219.3C379.3 218.7 379.7 218.3 380.3 218.3Z" fill="#858585"/>
<path d="M356.5 229.4H384" stroke="#858585" stroke-width="1.5"/>
<path d="M369.8 232.7C370 232.3 370.6 232.3 370.7 232.7L371.8 235.3C371.8 235.4 371.9 235.5 372 235.5L374.8 235.7C375.2 235.7 375.4 236.3 375.1 236.6L373 238.5C372.9 238.6 372.9 238.7 372.9 238.8L373.5 241.6C373.6 242 373.1 242.4 372.8 242.1L370.4 240.6C370.3 240.5 370.2 240.5 370.1 240.6L367.7 242.1C367.3 242.3 366.9 242 367 241.6L367.6 238.8C367.6 238.7 367.6 238.6 367.5 238.5L365.4 236.6C365.1 236.3 365.3 235.8 365.7 235.7L368.5 235.5C368.6 235.5 368.7 235.4 368.7 235.3L369.8 232.7Z" fill="white" stroke="#858585" stroke-width="1.5" stroke-miterlimit="100"/>
<path fill-rule="evenodd" clip-rule="evenodd" d="M290 124.792H316V136.792C316 138.383 315.368 139.909 314.243 141.035C313.117 142.16 311.591 142.792 310 142.792H296C294.409 142.792 292.883 142.16 291.757 141.035C290.632 139.909 290 138.383 290 136.792V124.792Z" fill="white"/>
<path fill-rule="evenodd" clip-rule="evenodd" d="M306.25 142.042H299.75V133.792C299.75 133.171 300.002 132.608 300.409 132.201C300.816 131.794 301.379 131.542 302 131.542H304C304.621 131.542 305.184 131.794 305.591 132.201C305.998 132.608 306.25 133.171 306.25 133.792V142.042Z" stroke="#DF0000" stroke-width="1.5"/>
<path fill-rule="evenodd" clip-rule="evenodd" d="M315.25 125.542V136.792C315.25 138.242 314.662 139.554 313.712 140.504C313.225 140.992 312.646 141.379 312.009 141.643C311.372 141.907 310.69 142.043 310 142.042H296C295.31 142.043 294.628 141.907 293.991 141.643C293.354 141.379 292.775 140.992 292.288 140.504C291.8 140.017 291.413 139.438 291.149 138.801C290.885 138.164 290.749 137.482 290.75 136.792V125.542H315.25Z" stroke="#303535" stroke-width="1.5"/>
<path fill-rule="evenodd" clip-rule="evenodd" d="M318.188 122.723L318.051 122.437C317.963 122.248 317.861 122.066 317.747 121.892L314.88 116.748C314.62 116.281 314.24 115.892 313.78 115.622C313.319 115.351 312.794 115.208 312.26 115.208H293.74C293.206 115.208 292.681 115.351 292.221 115.622C291.76 115.892 291.38 116.281 291.12 116.748L288.254 121.892C288.139 122.066 288.038 122.248 287.949 122.437L287.812 122.723C287.402 123.73 287.396 124.857 287.796 125.868C288.052 126.528 288.468 127.113 289.007 127.572C289.545 128.031 290.19 128.348 290.882 128.495C291.586 128.646 292.316 128.615 293.005 128.405C293.693 128.195 294.317 127.813 294.816 127.295C295.206 126.891 295.845 126.915 296.24 127.315C296.633 127.717 297.102 128.037 297.621 128.256C298.139 128.474 298.696 128.587 299.258 128.587C299.821 128.587 300.377 128.475 300.896 128.257C301.414 128.039 301.884 127.719 302.277 127.317C302.371 127.22 302.483 127.142 302.607 127.09C302.732 127.037 302.865 127.01 303 127.01C303.135 127.01 303.269 127.037 303.393 127.09C303.517 127.142 303.629 127.22 303.723 127.317C304.116 127.719 304.586 128.039 305.105 128.257C305.623 128.475 306.18 128.588 306.743 128.587C307.305 128.587 307.862 128.475 308.38 128.256C308.899 128.038 309.368 127.718 309.761 127.315C310.155 126.915 310.793 126.891 311.184 127.295C311.684 127.813 312.307 128.195 312.996 128.405C313.684 128.615 314.414 128.646 315.118 128.495C315.81 128.348 316.455 128.031 316.994 127.572C317.533 127.114 317.949 126.528 318.204 125.868C318.604 124.857 318.599 123.73 318.188 122.723Z" fill="white" stroke="#303535" stroke-width="1.5"/>
<path fill-rule="evenodd" clip-rule="evenodd" d="M290 321.792H316V333.792C316 335.383 315.368 336.909 314.243 338.035C313.117 339.16 311.591 339.792 310 339.792H296C294.409 339.792 292.883 339.16 291.757 338.035C290.632 336.909 290 335.383 290 333.792V321.792Z" fill="white"/>
<path fill-rule="evenodd" clip-rule="evenodd" d="M306.25 339.042H299.75V330.792C299.75 330.171 300.002 329.608 300.409 329.201C300.816 328.794 301.379 328.542 302 328.542H304C304.621 328.542 305.184 328.794 305.591 329.201C305.998 329.608 306.25 330.171 306.25 330.792V339.042Z" stroke="#858585" stroke-width="1.5"/>
<path fill-rule="evenodd" clip-rule="evenodd" d="M315.25 322.542V333.792C315.25 335.242 314.662 336.554 313.712 337.504C313.225 337.992 312.646 338.379 312.009 338.643C311.372 338.907 310.69 339.043 310 339.042H296C295.31 339.043 294.628 338.907 293.991 338.643C293.354 338.379 292.775 337.992 292.288 337.504C291.8 337.017 291.413 336.438 291.149 335.801C290.885 335.164 290.749 334.482 290.75 333.792V322.542H315.25Z" stroke="#858585" stroke-width="1.5"/>
<path fill-rule="evenodd" clip-rule="evenodd" d="M318.188 319.723L318.051 319.437C317.963 319.248 317.861 319.066 317.747 318.892L314.88 313.748C314.62 313.281 314.24 312.892 313.78 312.622C313.319 312.351 312.794 312.208 312.26 312.208H293.74C293.206 312.208 292.681 312.351 292.221 312.622C291.76 312.892 291.38 313.281 291.12 313.748L288.254 318.892C288.139 319.066 288.038 319.248 287.949 319.437L287.812 319.723C287.402 320.73 287.396 321.857 287.796 322.868C288.052 323.528 288.468 324.113 289.007 324.572C289.545 325.031 290.19 325.348 290.882 325.495C291.586 325.646 292.316 325.615 293.005 325.405C293.693 325.195 294.317 324.813 294.816 324.295C295.206 323.891 295.845 323.915 296.24 324.315C296.633 324.717 297.102 325.037 297.621 325.256C298.139 325.474 298.696 325.587 299.258 325.587C299.821 325.587 300.377 325.475 300.896 325.257C301.414 325.039 301.884 324.719 302.277 324.317C302.371 324.22 302.483 324.142 302.607 324.09C302.732 324.037 302.865 324.01 303 324.01C303.135 324.01 303.269 324.037 303.393 324.09C303.517 324.142 303.629 324.22 303.723 324.317C304.116 324.719 304.586 325.039 305.105 325.257C305.623 325.475 306.18 325.588 306.743 325.587C307.305 325.587 307.862 325.475 308.38 325.256C308.899 325.038 309.368 324.718 309.761 324.315C310.155 323.915 310.793 323.891 311.184 324.295C311.684 324.813 312.307 325.195 312.996 325.405C313.684 325.615 314.414 325.646 315.118 325.495C315.81 325.348 316.455 325.031 316.994 324.572C317.533 324.114 317.949 323.528 318.204 322.868C318.604 321.857 318.599 320.73 318.188 319.723Z" fill="white" stroke="#858585" stroke-width="1.5"/>
<g clip-path="url(#clip6_1361_2904)">
<path fill-rule="evenodd" clip-rule="evenodd" d="M25 142H43C46.31 142 49 139.31 49 136V128.09C49 127.54 48.55 127.09 48 127.09H20C19.45 127.09 19 127.54 19 128.09V136C19 139.31 21.69 142 25 142Z" fill="white"/>
<path fill-rule="evenodd" clip-rule="evenodd" d="M44 118.75C45.17 118.75 46.24 119.23 47.01 119.99C47.81 120.79 48.26 121.87 48.25 123V127L20 127.25L19.75 123C19.75 121.83 20.23 120.76 21 119.99C21.8 119.19 22.88 118.74 24 118.75H44Z" fill="white" stroke="#181718" stroke-width="1.5"/>
<path d="M43.25 118.75H24.75C21.9886 118.75 19.75 120.989 19.75 123.75V137.25C19.75 140.011 21.9886 142.25 24.75 142.25H43.25C46.0114 142.25 48.25 140.011 48.25 137.25V123.75C48.25 120.989 46.0114 118.75 43.25 118.75Z" stroke="#181718" stroke-width="1.5"/>
<path fill-rule="evenodd" clip-rule="evenodd" d="M24 115C24.55 115 25 115.45 25 116V118C25 118.55 24.55 119 24 119C23.45 119 23 118.55 23 118V116C23 115.45 23.45 115 24 115Z" fill="#222222"/>
<path fill-rule="evenodd" clip-rule="evenodd" d="M44 115C44.55 115 45 115.45 45 116V118C45 118.55 44.55 119 44 119C43.45 119 43 118.55 43 118V116C43 115.45 43.45 115 44 115Z" fill="#222222"/>
<path d="M30.0303 133.49L33.4803 136.48L38.9203 131.5" stroke="#DF0000" stroke-width="1.5" stroke-linecap="round" stroke-linejoin="round"/>
</g>
<g clip-path="url(#clip7_1361_2904)">
<path fill-rule="evenodd" clip-rule="evenodd" d="M25 339H43C46.31 339 49 336.31 49 333V325.09C49 324.54 48.55 324.09 48 324.09H20C19.45 324.09 19 324.54 19 325.09V333C19 336.31 21.69 339 25 339Z" fill="white"/>
<path fill-rule="evenodd" clip-rule="evenodd" d="M44 315.75C45.17 315.75 46.24 316.23 47.01 316.99C47.81 317.79 48.26 318.87 48.25 320V324L20 324.25L19.75 320C19.75 318.83 20.23 317.76 21 316.99C21.8 316.19 22.88 315.74 24 315.75H44Z" fill="white" stroke="#858585" stroke-width="1.5"/>
<path d="M43.25 315.75H24.75C21.9886 315.75 19.75 317.989 19.75 320.75V334.25C19.75 337.011 21.9886 339.25 24.75 339.25H43.25C46.0114 339.25 48.25 337.011 48.25 334.25V320.75C48.25 317.989 46.0114 315.75 43.25 315.75Z" stroke="#858585" stroke-width="1.5"/>
<path fill-rule="evenodd" clip-rule="evenodd" d="M24 312C24.55 312 25 312.45 25 313V315C25 315.55 24.55 316 24 316C23.45 316 23 315.55 23 315V313C23 312.45 23.45 312 24 312Z" fill="#858585"/>
<path fill-rule="evenodd" clip-rule="evenodd" d="M44 312C44.55 312 45 312.45 45 313V315C45 315.55 44.55 316 44 316C43.45 316 43 315.55 43 315V313C43 312.45 43.45 312 44 312Z" fill="#858585"/>
<path d="M30.0303 330.49L33.4803 333.48L38.9203 328.5" stroke="#858585" stroke-width="1.5" stroke-linecap="round" stroke-linejoin="round"/>
</g>
<path fill-rule="evenodd" clip-rule="evenodd" d="M363.525 118.361C363.095 118.098 362.6 118.034 362.146 118.144C361.692 118.253 361.28 118.536 361.017 118.966C360.842 119.252 360.75 119.581 360.75 119.917V123.061C360.75 123.747 361.062 124.395 361.599 124.822L365.991 128.317C366.402 128.644 366.906 128.773 367.389 128.718C367.873 128.663 368.335 128.424 368.662 128.013C368.929 127.677 369.075 127.26 369.075 126.83V123.016C369.075 122.232 368.667 121.505 367.999 121.096L363.525 118.361Z" fill="white" stroke="#DF0000" stroke-width="1.5"/>
<path fill-rule="evenodd" clip-rule="evenodd" d="M376.3 118.361C376.73 118.098 377.225 118.034 377.679 118.144C378.133 118.253 378.545 118.536 378.808 118.966C378.983 119.252 379.075 119.581 379.075 119.917V123.061C379.075 123.747 378.763 124.395 378.227 124.822L373.834 128.317C373.423 128.644 372.919 128.773 372.436 128.718C371.952 128.663 371.49 128.424 371.163 128.013C370.896 127.677 370.75 127.26 370.75 126.83V123.016C370.75 122.232 371.158 121.505 371.826 121.096L376.3 118.361Z" fill="white" stroke="#DF0000" stroke-width="1.5"/>
<path fill-rule="evenodd" clip-rule="evenodd" d="M380.565 121.152C381.174 121.032 381.775 121.17 382.253 121.491C382.731 121.812 383.087 122.315 383.207 122.925L383.25 135.444C383.25 135.982 383.06 136.482 382.738 136.873C382.416 137.265 381.963 137.548 381.435 137.652L369.998 139.907L358.574 137.707C358.045 137.605 357.589 137.322 357.265 136.93C356.941 136.538 356.75 136.037 356.75 135.497V123.408C356.75 122.786 357.002 122.224 357.409 121.817C357.816 121.409 358.379 121.158 359 121.158L370.002 123.235L380.565 121.152Z" fill="white" stroke="#181718" stroke-width="1.5"/>
<path d="M370.029 124.317V139.246" stroke="#181718" stroke-width="1.5" stroke-linecap="round"/>
<path fill-rule="evenodd" clip-rule="evenodd" d="M363.525 315.361C363.095 315.099 362.6 315.035 362.146 315.144C361.692 315.254 361.28 315.536 361.017 315.966C360.842 316.253 360.75 316.582 360.75 316.918V320.061C360.75 320.747 361.062 321.395 361.599 321.822L365.991 325.318C366.402 325.644 366.906 325.774 367.389 325.719C367.873 325.664 368.335 325.424 368.662 325.014C368.929 324.677 369.075 324.26 369.075 323.83V320.016C369.075 319.232 368.667 318.505 367.999 318.096L363.525 315.361Z" fill="white" stroke="#858585" stroke-width="1.5"/>
<path fill-rule="evenodd" clip-rule="evenodd" d="M376.3 315.361C376.73 315.099 377.225 315.035 377.679 315.144C378.133 315.254 378.545 315.536 378.808 315.966C378.983 316.253 379.075 316.582 379.075 316.918V320.061C379.075 320.747 378.763 321.395 378.227 321.822L373.834 325.318C373.423 325.644 372.919 325.774 372.436 325.719C371.952 325.664 371.49 325.424 371.163 325.014C370.896 324.677 370.75 324.26 370.75 323.83V320.016C370.75 319.232 371.158 318.505 371.826 318.096L376.3 315.361Z" fill="white" stroke="#858585" stroke-width="1.5"/>
<path fill-rule="evenodd" clip-rule="evenodd" d="M380.565 318.153C381.174 318.033 381.775 318.171 382.253 318.492C382.731 318.812 383.087 319.315 383.207 319.925L383.25 332.445C383.25 332.982 383.06 333.482 382.738 333.874C382.416 334.265 381.963 334.548 381.435 334.652L369.998 336.907L358.574 334.707C358.045 334.605 357.589 334.323 357.265 333.931C356.941 333.539 356.75 333.037 356.75 332.498V320.408C356.75 319.787 357.002 319.224 357.409 318.817C357.816 318.41 358.379 318.158 359 318.158L370.002 320.236L380.565 318.153Z" fill="white" stroke="#858585" stroke-width="1.5"/>
<path d="M370.029 321.318V336.247" stroke="#858585" stroke-width="1.5" stroke-linecap="round"/>
<path d="M28 178H40M34 184V172" stroke="#606060"/>
<path d="M28 370H40M34 376V364" stroke="#858585"/>
<path fill-rule="evenodd" clip-rule="evenodd" d="M113.687 179.365C113.745 178.917 113.788 178.462 113.788 178C113.788 177.538 113.745 177.083 113.687 176.635L116.731 174.318C117.004 174.108 117.083 173.73 116.903 173.422L114.026 168.571C113.846 168.27 113.472 168.144 113.148 168.27L109.565 169.677C108.824 169.124 108.011 168.655 107.133 168.298L106.594 164.588C106.529 164.259 106.234 164 105.874 164H100.119C99.7589 164 99.4639 164.259 99.4064 164.588L98.8667 168.298C97.989 168.655 97.176 169.117 96.435 169.677L92.8522 168.27C92.5284 168.151 92.1543 168.27 91.9744 168.571L89.0966 173.422C88.9167 173.723 88.9959 174.101 89.2693 174.318L92.3053 176.635C92.2478 177.083 92.2046 177.538 92.2046 178C92.2046 178.462 92.2478 178.917 92.3053 179.365L89.2693 181.682C88.9959 181.892 88.9167 182.27 89.0966 182.578L91.9744 187.429C92.1543 187.73 92.5284 187.856 92.8522 187.73L96.435 186.323C97.176 186.876 97.989 187.345 98.8667 187.702L99.4064 191.412C99.4639 191.741 99.7589 192 100.119 192H105.874C106.234 192 106.529 191.741 106.586 191.412L107.126 187.702C108.004 187.345 108.817 186.883 109.558 186.323L113.141 187.73C113.464 187.849 113.839 187.73 114.018 187.429L116.896 182.578C117.076 182.277 116.997 181.899 116.724 181.682L113.687 179.365ZM102.996 182.9C100.212 182.9 97.9603 180.709 97.9603 178C97.9603 175.291 100.212 173.1 102.996 173.1C105.781 173.1 108.033 175.291 108.033 178C108.033 180.709 105.781 182.9 102.996 182.9Z" fill="white" stroke="#181718" stroke-width="1.5"/>
<path fill-rule="evenodd" clip-rule="evenodd" d="M113.687 371.365C113.745 370.917 113.788 370.462 113.788 370C113.788 369.538 113.745 369.083 113.687 368.635L116.731 366.318C117.004 366.108 117.083 365.73 116.903 365.422L114.026 360.571C113.846 360.27 113.472 360.144 113.148 360.27L109.565 361.677C108.824 361.124 108.011 360.655 107.133 360.298L106.594 356.588C106.529 356.259 106.234 356 105.874 356H100.119C99.7589 356 99.4639 356.259 99.4064 356.588L98.8667 360.298C97.989 360.655 97.176 361.117 96.435 361.677L92.8522 360.27C92.5284 360.151 92.1543 360.27 91.9744 360.571L89.0966 365.422C88.9167 365.723 88.9959 366.101 89.2693 366.318L92.3053 368.635C92.2478 369.083 92.2046 369.538 92.2046 370C92.2046 370.462 92.2478 370.917 92.3053 371.365L89.2693 373.682C88.9959 373.892 88.9167 374.27 89.0966 374.578L91.9744 379.429C92.1543 379.73 92.5284 379.856 92.8522 379.73L96.435 378.323C97.176 378.876 97.989 379.345 98.8667 379.702L99.4064 383.412C99.4639 383.741 99.7589 384 100.119 384H105.874C106.234 384 106.529 383.741 106.586 383.412L107.126 379.702C108.004 379.345 108.817 378.883 109.558 378.323L113.141 379.73C113.464 379.849 113.839 379.73 114.018 379.429L116.896 374.578C117.076 374.277 116.997 373.899 116.724 373.682L113.687 371.365ZM102.996 374.9C100.212 374.9 97.9603 372.709 97.9603 370C97.9603 367.291 100.212 365.1 102.996 365.1C105.781 365.1 108.033 367.291 108.033 370C108.033 372.709 105.781 374.9 102.996 374.9Z" fill="white" stroke="#858585" stroke-width="1.5"/>
<defs>
<clipPath id="clip0_1361_2904">
<rect width="36" height="36" fill="white" transform="translate(354 65)"/>
</clipPath>
<clipPath id="clip1_1361_2904">
<rect width="36" height="36" fill="white" transform="translate(354 261.6)"/>
</clipPath>
<clipPath id="clip2_1361_2904">
<rect width="32" height="28.02" fill="white" transform="translate(153 114.99)"/>
</clipPath>
<clipPath id="clip3_1361_2904">
<rect width="32" height="28.02" fill="white" transform="translate(153 311.99)"/>
</clipPath>
<clipPath id="clip4_1361_2904">
<rect width="25.19" height="28.75" fill="white" transform="translate(88.4053 114.625)"/>
</clipPath>
<clipPath id="clip5_1361_2904">
<rect width="25.19" height="28.75" fill="white" transform="translate(88.4053 311.625)"/>
</clipPath>
<clipPath id="clip6_1361_2904">
<rect width="30" height="28" fill="white" transform="translate(19 115)"/>
</clipPath>
<clipPath id="clip7_1361_2904">
<rect width="30" height="28" fill="white" transform="translate(19 312)"/>
</clipPath>
</defs>
</svg>
